<svg width="1639" height="1906" viewBox="0 0 1639 1906" fill="none" xmlns="http://www.w3.org/2000/svg">
<rect width="1639" height="1906" rx="216" fill="black" fill-opacity="0.83"/>
<path d="M573.888 150.734C593.081 150.021 612.529 150.712 631.755 150.714H747.745C842.937 150.715 945.137 144.755 1038.03 167.254C1381.53 250.458 1574.44 630.158 1427.89 954.115C1343.67 1140.3 1153.15 1275.09 949.627 1291.68C842.897 1300.39 698.936 1296.57 597.187 1271.42C587.473 1268.89 577.9 1265.72 568.314 1262.75L568.396 1648.77C568.536 1743.88 556.365 1756.55 452.732 1756.13L269.566 1756.22C253.436 1756.3 234.944 1758.23 219.194 1755.22C149.965 1741.96 162.937 1661.48 163.007 1609.63L162.983 626.052C163.024 501.334 183.604 392.139 270.584 294.622C351.487 203.92 454.427 157.386 573.888 150.734ZM689.638 503.222C654.943 504.624 624.218 517.492 600.552 543.277C550.791 597.491 576.646 663.468 566.875 727.301C536.587 925.135 272.192 958.545 192.399 801.492L192.353 1660.15C192.312 1718.29 196.443 1728.89 257.605 1728.53L311.011 1728.41C347.52 1728.4 498.774 1735.8 522.857 1720.78C552.63 1697.02 540.833 1623.99 540.8 1587.22L540.813 1340.4C540.817 1318.19 541.217 1295.92 540.912 1273.72C540.124 1217.01 532.575 1222.3 589.774 1239.81C681.537 1267.89 741.952 1263.7 831.667 1265.68L831.647 1067.07C831.637 1032.36 830.257 997.145 831.667 962.525C834.667 959.625 837.617 956.675 840.677 953.845C911.727 954.625 972.317 939.025 1024.44 888.08C1110.5 803.982 1112.56 658.277 1027.13 572.819C961.417 507.077 890.297 503.127 801.887 503.193L689.638 503.222ZM580.423 179.062C557.544 180.904 534.707 182.62 512.121 186.921C338.771 219.932 209.897 367.763 194.237 542.123C190.135 587.81 189.529 670.589 193.38 715.909C203.02 829.363 326.909 904.875 432.311 860.039C547.839 809.363 537.58 720.729 539.753 617.657C541.242 547.108 598.894 486.429 668.1 476.616C688.872 473.672 710.662 474.847 731.615 474.847L831.667 474.893V179.062H580.423Z" fill="url(#paint0_linear_45_49)"/>
<path d="M860.566 175.29C938.046 175.178 998.756 176.977 1072.96 202.271C1364 301.479 1519.9 607.437 1417.8 900.932C1371.78 1033.25 1258.92 1148.13 1134.63 1208.07C1039.88 1255.87 962.446 1262.04 860.566 1261.91V978.966C998.846 979.286 1116.01 873.749 1119.52 731.953C1123.17 584.76 1004.56 473.912 860.566 471.121C859.376 375.965 856.966 270.107 860.566 175.29Z" fill="url(#paint1_linear_45_49)"/>
<path d="M370.167 821.285C427.328 821.285 473.667 774.947 473.667 717.785C473.667 660.624 427.328 614.285 370.167 614.285C313.006 614.285 266.667 660.624 266.667 717.785C266.667 774.947 313.006 821.285 370.167 821.285Z" fill="url(#paint2_linear_45_49)"/>
<defs>
<linearGradient id="paint0_linear_45_49" x1="819.717" y1="150" x2="819.717" y2="1756.9" gradientUnits="userSpaceOnUse">
<stop stop-color="#05F4CC"/>
<stop offset="1" stop-color="#01A8FA"/>
</linearGradient>
<linearGradient id="paint1_linear_45_49" x1="1153.9" y1="175.286" x2="1153.9" y2="1261.91" gradientUnits="userSpaceOnUse">
<stop stop-color="#04F4CF"/>
<stop offset="1" stop-color="#01A7FC"/>
</linearGradient>
<linearGradient id="paint2_linear_45_49" x1="370.167" y1="614.285" x2="370.167" y2="821.285" gradientUnits="userSpaceOnUse">
<stop stop-color="#05F4CF"/>
<stop offset="1" stop-color="#01A8FD"/>
</linearGradient>
</defs>
</svg>
