<svg width="2111" height="2112" viewBox="0 0 2111 2112" fill="none" xmlns="http://www.w3.org/2000/svg">
<path d="M808.221 249.449C827.414 248.736 846.862 249.427 866.088 249.429L982.078 249.429C1077.27 249.43 1179.47 243.47 1272.36 265.969C1615.86 349.173 1808.77 728.873 1662.22 1052.83C1578 1239.01 1387.48 1373.8 1183.96 1390.39C1077.23 1399.1 933.269 1395.28 831.52 1370.13C821.806 1367.6 812.233 1364.43 802.647 1361.46L802.729 1747.48C802.869 1842.59 790.698 1855.26 687.065 1854.84L503.899 1854.93C487.769 1855.01 469.277 1856.94 453.527 1853.93C384.298 1840.67 397.27 1760.19 397.34 1708.34L397.316 724.767C397.357 600.049 417.937 490.854 504.917 393.337C585.82 302.635 688.76 256.101 808.221 249.449ZM923.971 601.937C889.276 603.339 858.551 616.207 834.885 641.992C785.124 696.206 810.979 762.183 801.208 826.016C770.92 1023.85 506.525 1057.26 426.732 900.207L426.686 1758.86C426.645 1817 430.776 1827.6 491.938 1827.24L545.344 1827.12C581.853 1827.11 733.107 1834.51 757.19 1819.49C786.963 1795.73 775.166 1722.7 775.133 1685.93L775.146 1439.11C775.15 1416.9 775.55 1394.63 775.245 1372.43C774.457 1315.72 766.908 1321.01 824.107 1338.52C915.87 1366.6 976.285 1362.41 1066 1364.39L1065.98 1165.78C1065.97 1131.07 1064.59 1095.86 1066 1061.24C1069 1058.34 1071.95 1055.39 1075.01 1052.56C1146.06 1053.34 1206.65 1037.74 1258.77 986.795C1344.83 902.697 1346.89 756.992 1261.46 671.534C1195.75 605.792 1124.63 601.842 1036.22 601.908L923.971 601.937ZM814.756 277.777C791.877 279.619 769.04 281.335 746.454 285.636C573.104 318.647 444.23 466.478 428.57 640.838C424.468 686.525 423.862 769.304 427.713 814.624C437.353 928.078 561.242 1003.59 666.644 958.754C782.172 908.078 771.913 819.444 774.086 716.372C775.575 645.823 833.227 585.144 902.433 575.331C923.205 572.387 944.995 573.562 965.948 573.562L1066 573.608V277.777H814.756Z" fill="url(#paint0_linear_41_59)"/>
<path d="M1094.9 274.004C1172.38 273.892 1233.09 275.691 1307.29 300.985C1598.33 400.193 1754.23 706.151 1652.13 999.646C1606.11 1131.96 1493.25 1246.84 1368.96 1306.78C1274.21 1354.58 1196.78 1360.75 1094.9 1360.62V1077.68C1233.18 1078 1350.34 972.463 1353.85 830.667C1357.5 683.474 1238.89 572.626 1094.9 569.835C1093.71 474.679 1091.3 368.821 1094.9 274.004Z" fill="url(#paint1_linear_41_59)"/>
<circle cx="604.5" cy="816.5" r="103.5" fill="url(#paint2_linear_41_59)"/>
<defs>
<linearGradient id="paint0_linear_41_59" x1="1054.05" y1="248.715" x2="1054.05" y2="1855.61" gradientUnits="userSpaceOnUse">
<stop stop-color="#31F766"/>
<stop offset="1" stop-color="#1BEBF2"/>
</linearGradient>
<linearGradient id="paint1_linear_41_59" x1="1388.23" y1="274" x2="1388.23" y2="1360.62" gradientUnits="userSpaceOnUse">
<stop stop-color="#30F767"/>
<stop offset="1" stop-color="#21EEC8"/>
</linearGradient>
<linearGradient id="paint2_linear_41_59" x1="604.5" y1="713" x2="604.5" y2="920" gradientUnits="userSpaceOnUse">
<stop stop-color="#2DF57B"/>
<stop offset="1" stop-color="#26F1A6"/>
</linearGradient>
</defs>
</svg>
