<svg width="1316" height="1638" viewBox="0 0 1316 1638" fill="none" xmlns="http://www.w3.org/2000/svg">
<path d="M411.888 31.7341C431.081 31.0211 450.529 31.7121 469.755 31.7141H585.745C680.937 31.7151 783.137 25.7551 876.027 48.2541C1219.53 131.458 1412.44 511.158 1265.89 835.115C1181.67 1021.3 991.147 1156.09 787.627 1172.68C680.897 1181.39 536.936 1177.57 435.187 1152.42C425.473 1149.89 415.9 1146.72 406.314 1143.75L406.396 1529.77C406.536 1624.88 394.365 1637.55 290.732 1637.13L107.566 1637.22C91.4361 1637.3 72.9441 1639.23 57.1941 1636.22C-12.0349 1622.96 0.937082 1542.48 1.00708 1490.63L0.983095 507.052C1.02409 382.334 21.6041 273.139 108.584 175.622C189.487 84.9201 292.427 38.3861 411.888 31.7341ZM527.638 384.222C492.943 385.624 462.218 398.492 438.552 424.277C388.791 478.491 414.646 544.468 404.875 608.301C374.587 806.135 110.192 839.545 30.3991 682.492L30.3531 1541.15C30.3121 1599.29 34.4431 1609.89 95.6051 1609.53L149.011 1609.41C185.52 1609.4 336.774 1616.8 360.857 1601.78C390.63 1578.02 378.833 1504.99 378.8 1468.22L378.813 1221.4C378.817 1199.19 379.217 1176.92 378.912 1154.72C378.124 1098.01 370.575 1103.3 427.774 1120.81C519.537 1148.89 579.952 1144.7 669.667 1146.68L669.647 948.065C669.637 913.355 668.257 878.145 669.667 843.525C672.667 840.625 675.617 837.675 678.677 834.845C749.727 835.625 810.317 820.025 862.437 769.08C948.497 684.982 950.557 539.277 865.127 453.819C799.417 388.077 728.297 384.127 639.887 384.193L527.638 384.222ZM418.423 60.0621C395.544 61.9041 372.707 63.6201 350.121 67.9211C176.771 100.932 47.8971 248.763 32.2371 423.123C28.1351 468.81 27.5291 551.589 31.3801 596.909C41.0201 710.363 164.909 785.875 270.311 741.039C385.839 690.363 375.58 601.729 377.753 498.657C379.242 428.108 436.894 367.429 506.1 357.616C526.872 354.672 548.662 355.847 569.615 355.847L669.667 355.893V60.0621H418.423Z" fill="url(#paint0_linear_45_36)"/>
<path d="M689.86 56.004C768.475 55.892 830.074 57.691 905.361 82.985C1200.66 182.193 1358.85 488.151 1255.25 781.646C1208.56 913.96 1094.05 1028.84 967.935 1088.78C871.797 1136.58 793.232 1142.75 689.86 1142.62V859.68C830.166 860 949.042 754.463 952.603 612.667C956.307 465.474 835.959 354.626 689.86 351.835C688.653 256.679 686.207 150.821 689.86 56.004Z" fill="url(#paint1_linear_45_36)"/>
<path d="M192.276 702C250.275 702 297.292 655.661 297.292 598.5C297.292 541.339 250.275 495 192.276 495C134.277 495 87.2598 541.339 87.2598 598.5C87.2598 655.661 134.277 702 192.276 702Z" fill="url(#paint2_linear_45_36)"/>
<defs>
<linearGradient id="paint0_linear_45_36" x1="657.717" y1="31.0001" x2="657.717" y2="1637.9" gradientUnits="userSpaceOnUse">
<stop stop-color="#05F4CC"/>
<stop offset="1" stop-color="#01A8FA"/>
</linearGradient>
<linearGradient id="paint1_linear_45_36" x1="987.487" y1="56" x2="987.487" y2="1142.62" gradientUnits="userSpaceOnUse">
<stop stop-color="#04F4CF"/>
<stop offset="1" stop-color="#01A7FC"/>
</linearGradient>
<linearGradient id="paint2_linear_45_36" x1="192.276" y1="495" x2="192.276" y2="702" gradientUnits="userSpaceOnUse">
<stop stop-color="#05F4CF"/>
<stop offset="1" stop-color="#01A8FD"/>
</linearGradient>
</defs>
</svg>
