<svg width="3033" height="3231" viewBox="0 0 3033 3231" fill="none" xmlns="http://www.w3.org/2000/svg">
<path d="M50 904.881L864.178 50H2983V2347.5L2217.87 3181H50V904.881Z" stroke="#1CCA82" stroke-width="100"/>
<path d="M1276.12 555.807C1362.6 550.776 1445.08 555.515 1526.99 586.124C1618.66 620.382 1768.97 720.436 1811.88 814.307C1844.75 808.398 1875.43 801.771 1909.14 801.961C2101.37 803.047 2262.99 948.153 2302.2 1132.56C2306.27 1151.74 2310.33 1172.55 2310.29 1192.19C2326.71 1202.6 2344.61 1210.58 2361.36 1220.48C2471.25 1285.47 2560.38 1410.56 2574.87 1537.59C2578.56 1570 2576.23 1606.09 2576.2 1638.92C2576.03 1849.92 2390.1 2043.64 2184.83 2072.5C2143.94 2078.24 2102.86 2078.08 2061.69 2078.1L1582.73 2078.06L1582.84 2324C1583.09 2402.67 1558.59 2411.3 1480 2411.11C1447.01 2411.03 1413.69 2409.86 1380.74 2411.01C1319.61 2413.14 1295.17 2491.62 1340.37 2531.95C1363.34 2552.46 1390.55 2549.97 1419.22 2549.98H1583.5C1634.33 2549.96 1697.22 2557.28 1712.91 2493.31C1722.73 2453.27 1719.32 2416.17 1776.63 2414.9C1816.5 2414.02 1856.65 2415 1896.54 2415.01L2262.39 2414.99C2295.99 2414.9 2336.71 2407.39 2363.33 2432.85C2389.9 2458.25 2391.96 2500.22 2365.39 2526.41C2343.84 2547.66 2320.55 2545.92 2292.39 2545.92L2038.46 2545.87C2015.42 2544.93 1992.07 2545.82 1969 2545.83L1831.48 2545.87C1808.6 2599.44 1771.66 2640.2 1717.45 2663.06C1684.21 2677.07 1659.93 2675.24 1624.57 2675.22L1409 2675.24C1303.12 2675.29 1241.98 2654.5 1196.94 2545.87L760.184 2545.92C729.95 2545.92 694.908 2551.45 670.929 2528.55C645.522 2504.3 643.081 2460.02 668.228 2434.72C693.426 2409.37 735.854 2414.96 768.327 2414.98L1201.33 2415.03C1248.18 2290.68 1336.1 2282.58 1450.84 2282.01C1452.68 2260.82 1450.89 2237.07 1450.86 2215.67L1450.84 2078.06C1411.25 2078.92 1371.45 2078.06 1331.84 2078.06L960.74 2078.08C928.651 2078.08 896.23 2079.02 864.267 2075.67C700.255 2058.47 554.855 1941.08 490.583 1791.16C446.67 1688.72 442.192 1544.63 483.796 1440.68C532.539 1318.88 622.988 1220.91 748.156 1174.62C760.02 1170.24 772.148 1166.74 783.795 1161.76C786.154 1145.05 784.175 1128.8 783.804 1112.05C777.636 833.559 1002.08 588.66 1276.12 555.807ZM1336.85 684.607C1080.65 691.543 877.904 912.236 920.864 1171.36C926.162 1203.33 936.292 1230 910.78 1256.87C891.028 1277.68 841.405 1280.31 810.077 1291.7C481.674 1411.02 530.449 1875.33 853.325 1940.3C895.086 1948.7 938.714 1946.17 981.122 1946.17L1710.46 1946.14L2069.96 1946.2C2116.92 1946.26 2161.02 1946.66 2206.83 1934.14C2497.1 1854.83 2537.46 1432.99 2260.41 1310.85C2240.31 1301.99 2213.85 1297.28 2197.4 1282.27C2170.24 1257.47 2181.17 1214.84 2177.92 1182.12C2161.79 1019.8 1998.46 893.815 1840.92 941.682C1804.14 952.856 1772.24 978.2 1736.63 943.205C1722.47 929.285 1715.73 909.877 1706.06 892.92C1633.31 765.415 1483.36 684.209 1337.92 684.599L1336.85 684.607Z" fill="url(#paint0_linear_1_56)"/>
<defs>
<linearGradient id="paint0_linear_1_56" x1="1515.97" y1="554.077" x2="1515.97" y2="2675.31" gradientUnits="userSpaceOnUse">
<stop stop-color="#41EC9F"/>
<stop offset="1" stop-color="#4CCCCA"/>
</linearGradient>
</defs>
</svg>
