<svg width="3033" height="3231" viewBox="0 0 3033 3231" fill="none" xmlns="http://www.w3.org/2000/svg">
<path d="M50 904.881L864.178 50H2983V2347.5L2217.87 3181H50V904.881Z" stroke="#1CCA82" stroke-width="100"/>
<path d="M944.807 1694.4C971.001 1693.32 1030.71 1723.45 1056.62 1733.87L1184.54 1783.86C1254.26 1811.26 1332.35 1838.09 1399.72 1868.26C1452.15 1891.74 1442.2 1942.91 1442.15 1990.47L1442.18 2108.55L1917.56 2108.6C2007.51 2108.81 2021.32 2122.98 2021.19 2017.1C2021.15 1981.75 2020.69 1946.84 2019.52 1911.58C2017.65 1854.92 2094.32 1830.99 2132.58 1869.05C2159.08 1895.4 2152.33 1933.75 2152.3 1967.68L2152.37 2069.87C2152.7 2155.21 2102.56 2222.69 2017.67 2238.7C1995.98 2242.79 1972.43 2241.09 1950.41 2241.08L1491.8 2241.01C1475.24 2240.32 1458.73 2240.34 1442.18 2241.01C1440.74 2289.18 1442.15 2337.87 1442.23 2386.1C1442.4 2481.42 1446.71 2486.57 1355.09 2522.42L1058.01 2637.9C935.4 2685.6 960.618 2690.72 830.827 2638.26L552.706 2530.15C449.049 2490.51 456.833 2498.98 456.824 2396.43L456.833 1955.62C456.829 1942.21 456.302 1928.59 457.062 1915.22C460.03 1862.96 530.049 1850.43 569.039 1835.49L864.053 1723.07C890.305 1712.9 917.377 1700.63 944.807 1694.4ZM582.408 2027.98L582.457 2276.31C582.461 2317.23 583.825 2358.66 582.408 2399.51C679.177 2438.29 782.487 2480.59 880.495 2515.57L880.524 2269.37C880.528 2228.58 881.882 2187.27 880.495 2146.54C851.705 2136.17 823.684 2123.57 795.278 2112.2L660.347 2059.07C634.65 2048.8 608.661 2036.54 582.408 2027.98ZM1307.97 2031.75L1100.67 2113.01C1073.49 2123.47 1040.23 2139.31 1013.11 2146.54C1013.16 2189.22 1010.77 2505.48 1015.23 2512.19L1017.41 2511.79C1085.64 2483.57 1154.85 2457.47 1223.87 2431.24C1251.13 2420.87 1282.68 2404.97 1311.04 2399.51L1311.05 2147.43C1310.95 2109.37 1312.3 2070.88 1310.64 2032.88C1309.11 2031.5 1310 2031.88 1307.97 2031.75ZM944.807 1831.91L770.762 1899.8C744.843 1909.85 717.324 1917.85 692.39 1930.15L899.985 2013.54C909.03 2017.2 936.679 2031.29 944.807 2031.75C986.383 2017.5 1026.68 1999.09 1067.65 1983.13L1141.63 1954.37C1161.02 1946.82 1180.7 1939.58 1199.27 1930.15C1174.66 1921.14 1150.44 1910.84 1126.09 1901.15L1003.46 1853.1C990.891 1848.24 956.476 1832.75 944.807 1831.91Z" fill="url(#paint0_linear_1_23)"/>
<path d="M2068.24 555.837C2107.41 551.926 2140.95 571.865 2176.26 586.058L2447.26 694.591C2482.06 708.514 2573.96 732.699 2575.99 777.706C2577.7 815.77 2576.18 854.535 2576.18 892.7L2576.24 1251.16C2576.26 1356.64 2580.52 1336.69 2476.1 1380.11C2426.71 1400.65 2105.63 1536.55 2087.73 1535.99C2057.17 1535.04 1919.4 1471.4 1881.46 1456.65L1730.24 1397.8C1613.9 1352.86 1590.05 1366.81 1590.05 1234.05L1590.11 1118.76C1567.79 1117.67 1544.94 1118.72 1522.55 1118.73L1387.72 1118.76L1081.49 1118.63C1011.68 1118.51 1011.94 1121.29 1013.1 1188.99C1014.15 1250.56 1013.16 1312.33 1013.15 1373.92C1013.15 1402.97 1015.83 1458.14 1010.57 1484.96C996.374 1557.49 880.516 1553.49 880.415 1462.1L880.432 1183.03C880.36 1095.41 904.834 1015.65 1005.22 994.826C1033.36 988.99 1063.3 991.017 1091.91 991.059L1590.11 991.054L1590.05 849.898C1590.03 749.811 1584.6 748.093 1671.6 712.884L1967.8 593.55C1990.56 584.369 2045.95 558.842 2068.24 555.837ZM1722.28 890.657C1720.93 921.942 1722.28 953.747 1722.29 985.083L1722.32 1176.63C1722.32 1202.1 1723.39 1228.02 1722.28 1253.43C1821.83 1289.99 1921.34 1332.07 2021.13 1370.24V1008.04L1808.51 924.675C1779.81 913.569 1751.35 900.662 1722.28 890.657ZM2449 890.657C2417.93 899.433 2380.13 917.071 2349.54 929.418C2283.95 955.896 2218.37 982.892 2152.26 1008.04L2151.24 1366.82C2151.23 1368.24 2151.52 1369.04 2152.26 1370.24C2180.13 1360.58 2207.42 1348.42 2234.73 1337.24L2383.02 1276.6C2405 1267.58 2426.8 1257.64 2449 1249.19C2448.64 1220.03 2450.18 893.031 2449 890.657ZM2083.46 690.66C2005.13 722.235 1903.94 755.834 1829.75 792.676C1908 829.367 2001.78 858.716 2083.46 893.446C2097.98 888.697 2112.12 882.56 2126.3 876.882L2299.04 808.145C2311.18 803.273 2323.71 798.693 2335.34 792.676C2313.27 782.82 2090.54 690.547 2083.46 690.66Z" fill="url(#paint1_linear_1_23)"/>
<defs>
<linearGradient id="paint0_linear_1_23" x1="1304.87" y1="1694.38" x2="1304.87" y2="2675.67" gradientUnits="userSpaceOnUse">
<stop stop-color="#52D472"/>
<stop offset="1" stop-color="#3FCCAB"/>
</linearGradient>
<linearGradient id="paint1_linear_1_23" x1="1728.61" y1="555.338" x2="1728.61" y2="1535.99" gradientUnits="userSpaceOnUse">
<stop stop-color="#52D472"/>
<stop offset="1" stop-color="#3FCCAB"/>
</linearGradient>
</defs>
</svg>
