<svg width="3033" height="3231" viewBox="0 0 3033 3231" fill="none" xmlns="http://www.w3.org/2000/svg">
<path d="M50 904.881L864.178 50H2983V2347.5L2217.87 3181H50V904.881Z" stroke="#1CCA82" stroke-width="100"/>
<path d="M1297.59 1746.91C1355.57 1746.15 1413.65 1746.97 1471.65 1746.9L1529.04 1746.84C1607.5 1746.81 1604.65 1763.52 1657.07 1815.55C1706.08 1864.21 1778.6 1917.74 1730.33 1998.6C1716.79 2021.27 1688.74 2044.96 1669.75 2064.09L1565.28 2170.47C1549.91 2186.12 1533.18 2200.62 1518.62 2217.02C1526.14 2225.29 1534.71 2232.76 1542.62 2240.69L1668.96 2367.73C1714.8 2413.92 1773.5 2462.19 1729.23 2535.69C1713.85 2561.22 1640.92 2629.2 1617.41 2652.26C1595.25 2674 1583.88 2675.46 1553.82 2675.18L1367.63 2675.13C1259.04 2675.11 1273.07 2693.38 1192.74 2614.15C1139.1 2561.24 1069 2503.65 1127.87 2418.99C1142.49 2397.96 1171.78 2374.03 1190.7 2355.08C1236.94 2308.75 1281.73 2260.57 1330.64 2217.02C1287.05 2166.4 1224.11 2107.66 1176.31 2058.92C1159.8 2042.08 1132.84 2017.95 1120.21 1998.77C1070.7 1923.58 1138.04 1869.83 1184.55 1823.13C1221.81 1785.71 1240.86 1753.28 1297.59 1746.91ZM1315.74 1877.44C1290.64 1899.19 1269.62 1925.61 1245.05 1948.04C1257.75 1957.73 1269.14 1970.22 1280.49 1981.45L1392.98 2092.69C1403.26 2102.65 1414.19 2112.26 1423.96 2122.68L1479.79 2068.07C1520.97 2027.05 1560.36 1984.01 1602.91 1944.39C1582.7 1924.08 1555.02 1899.75 1538.43 1877.44H1315.74ZM1423.96 2312.08C1368.55 2362.69 1300.17 2430.07 1249.43 2486.15C1271.19 2505.41 1291.36 2527.07 1311.92 2547.62H1429.51H1538.43C1556.4 2526.3 1578.31 2505.05 1598.88 2486.15C1582.5 2468.49 1429.8 2314.89 1423.96 2312.08Z" fill="url(#paint0_linear_11_84)"/>
<path d="M1522.84 618.877C1825.19 608.691 2099.05 789.662 2212.1 1070.35C2229.68 1114 2241.2 1158 2253.03 1203.42C2422.56 1288.79 2554.25 1449.29 2575.02 1642.09C2580.62 1694.01 2576.89 1792.05 2566.22 1841.51C2532.68 1997.08 2431.6 2133.28 2292.44 2210.07C2161.8 2282.16 2059.46 2278.9 1918.17 2278.84L1817.31 2278.83C1768.12 2278.98 1690.48 2283.21 1698.64 2205.87C1706.27 2133.45 1788.75 2147.44 1839.78 2147.47L1971.07 2147.48C2001.54 2147.46 2032.99 2148.51 2063.28 2145.05C2414.2 2105.01 2563.41 1699.8 2346.3 1434.51C2232.02 1294.88 2010.47 1231.76 1848.74 1324.24C1837.42 1330.71 1826.17 1338.65 1813.86 1343C1769.39 1358.71 1716.53 1313.88 1722.24 1267.6C1726.26 1234.99 1757.34 1221.38 1783.03 1207.61C1878.85 1156.26 1994.92 1143.4 2101.56 1157.65C2083.13 1080.07 2020.56 982.178 1967.42 926.233C1806.62 762.524 1577.29 703.881 1359.53 783.488C1177.04 850.204 1036.79 1002.71 994.473 1192.96C980.437 1256.07 986.61 1273.84 914.749 1292.53C785.988 1326.03 680.995 1414.5 624.902 1535.55C498.33 1808.71 680.662 2128.09 985.878 2147.36C1038.96 2150.71 1127.17 2127.66 1148.82 2195.23C1159.21 2227.65 1140.84 2266.7 1107.39 2276.11C1081.63 2283.36 985.697 2278.68 956.632 2275.86C727.979 2253.63 529.485 2089.01 471.505 1865.11C457.83 1812.31 456.847 1776.35 456.843 1722.92C456.835 1605.39 469.294 1534.14 532.288 1427.32C598.515 1315.01 731.177 1205.98 860.23 1172.81C864.217 1163.28 866.42 1152.3 869.2 1142.33C954.197 837.475 1204.85 637.214 1522.84 618.877Z" fill="url(#paint1_linear_11_84)"/>
<defs>
<linearGradient id="paint0_linear_11_84" x1="1424.53" y1="1746.58" x2="1424.53" y2="2676.94" gradientUnits="userSpaceOnUse">
<stop stop-color="#1CCA82"/>
<stop offset="1" stop-color="#44E1D4"/>
</linearGradient>
<linearGradient id="paint1_linear_11_84" x1="1517.23" y1="618.468" x2="1517.23" y2="2279.97" gradientUnits="userSpaceOnUse">
<stop stop-color="#1CCA82"/>
<stop offset="1" stop-color="#44E1D4"/>
</linearGradient>
</defs>
</svg>
