<svg width="3033" height="3231" viewBox="0 0 3033 3231" fill="none" xmlns="http://www.w3.org/2000/svg">
<path d="M50 904.881L864.178 50H2983V2347.5L2217.87 3181H50V904.881Z" stroke="#1CCA82" stroke-width="100"/>
<path d="M1256.19 555.805C1319.63 552.105 1405.4 554.705 1464.47 572.445C1604.55 614.51 1721.97 705.591 1791.58 834.879C1990.17 793.203 2161.03 902.404 2216.09 1096.65C2301.88 1112.09 2376.62 1147.12 2440.47 1207.19C2505.98 1268.8 2573.59 1380.65 2576.08 1472.35C2577.04 1507.88 2579.29 1570.5 2575.1 1604.51C2552.33 1788.96 2381.86 1944.17 2199.83 1966.82C2164.57 1971.21 2128.67 1970.4 2093.19 1970.46L1706.31 1970.48C1663.53 1970.46 1620.66 1969.48 1577.89 1970.47C1576.18 2008.21 1577.92 2046.68 1578.03 2084.51L1577.85 2277.57C1577.78 2306.22 1578.46 2334.9 1577.89 2363.53H1920.2C1920.3 2259.62 1935.7 2195.07 2056.99 2194.36L2199.08 2194.3C2228.42 2194.3 2274.08 2191.09 2301.08 2198.1C2401.83 2224.24 2392.6 2318.76 2392.5 2397.17L2392.44 2532.92C2391.82 2628.42 2345.54 2675.34 2250.97 2675.24L2191.66 2675.16C2116.19 2675.05 2011.42 2694.97 1957.31 2638.13C1913.88 2592.5 1918.46 2549.01 1920.2 2491.25C1874.5 2491.97 1828.7 2491.28 1783 2491.25H1114.92C1115.05 2547.11 1122.43 2594.67 1079.9 2638.68C1025.85 2694.62 924.85 2675.09 849.904 2675.17L781.408 2675.25C763.594 2675.26 743.225 2677.21 725.914 2672.71C685.935 2662.32 651.191 2619.33 641.592 2580.62C635.557 2556.29 638.561 2512.15 638.585 2485.78L638.278 2342.38C637.307 2252.56 679.519 2191.18 774.272 2190.54L911.633 2190.54C971.186 2190.52 1032.41 2181.19 1078.42 2227.24C1120.71 2269.57 1115.29 2308.91 1114.92 2363.53C1225.16 2366.96 1345.21 2365.04 1455.66 2363.53C1456.49 2319.57 1455.67 2275.44 1455.67 2231.46L1455.66 1970.47C1440.82 1969.33 1425.27 1970.38 1410.36 1970.34L915.712 1970.51C886.134 1970.56 856.889 1970.96 827.583 1966.17C651.744 1937.4 508.071 1805.91 465.32 1631.84C455.248 1590.83 453.569 1501.78 458.121 1457.9C475.005 1295.12 619.615 1142.44 776.371 1104.14C774.819 824.462 977.241 591.338 1256.19 555.805ZM1292.83 679.871C1171.33 695.162 1071.33 737.313 993.389 837.863C931.414 917.816 892.012 1027.16 905.01 1128.98C914.716 1204.96 884.393 1209.96 821.217 1223.72C669.896 1256.69 565.595 1410.91 583.993 1563.71C600.775 1703.08 710.377 1820.36 849.375 1842.44C886.361 1848.31 925.476 1845.8 962.843 1845.8H1768.54L2108.71 1845.86C2146.47 1845.98 2183.15 1846.85 2220.2 1837.94C2357.96 1804.82 2456.68 1677.02 2456.33 1535.25C2455.95 1383.62 2346.97 1243.59 2194.89 1219.58C2118.62 1207.55 2110.13 1220.37 2093.03 1134.18C2072.91 1032.72 1977.07 948.717 1872.52 949.536C1821.89 949.932 1824.56 956.111 1785.49 975.155C1726.57 1003.88 1705.41 941.642 1686.82 905.022C1612.75 759.102 1455.06 670.432 1292.83 679.871ZM776.371 2315.51C772.965 2315.46 769.555 2315.03 766.374 2316.35C764.186 2344.97 766.001 2375.01 766.073 2403.78L766.069 2551.77C789.348 2552.94 813.057 2551.78 836.399 2551.77H977.46C994.309 2551.92 985.668 2499.13 985.668 2482.13L985.626 2315.51H776.371ZM2047.55 2315.51C2045.37 2393.69 2051.2 2474.68 2047.55 2551.77C2120.29 2550.5 2193.29 2551.79 2266.06 2551.77V2315.51H2047.55Z" fill="url(#paint0_linear_1_53)"/>
<defs>
<linearGradient id="paint0_linear_1_53" x1="1516.64" y1="554.35" x2="1516.64" y2="2678.46" gradientUnits="userSpaceOnUse">
<stop stop-color="#41F489"/>
<stop offset="1" stop-color="#55CFC9"/>
</linearGradient>
</defs>
</svg>
