<svg width="3033" height="3231" viewBox="0 0 3033 3231" fill="none" xmlns="http://www.w3.org/2000/svg">
<path d="M50 904.881L864.178 50H2983V2347.5L2217.87 3181H50V904.881Z" stroke="#1CCA82" stroke-width="100"/>
<path d="M653.074 555.805C709.908 554.7 766.991 555.804 823.844 555.807L1409.21 555.762C1521.75 555.719 1589.53 622.788 1628.36 726.127H2134.87C2151.05 648.512 2221.55 573.191 2301.06 557.948C2409.79 537.107 2518.92 586.97 2562.91 692.117C2579.44 731.623 2581.07 786.608 2574.86 827.769C2565.65 888.935 2516.91 943.199 2464.93 972.695C2336.89 1045.34 2191.76 981.143 2138.74 848.071C2124.61 850.237 2108.28 848.166 2093.85 848.129L1989.25 848.071C1870.62 848.051 1751.85 849.434 1633.23 848.071V1554.53H2134.87C2199.02 1334.76 2518 1339.25 2572.62 1566.51C2585.82 1621.44 2572.75 1691.15 2543.89 1738.76C2511.79 1785.72 2467.73 1817 2413.25 1833.02V2235.33C2488.47 2256.21 2549.18 2312.8 2571.17 2388.75C2584.18 2433.65 2576.91 2517.22 2554.71 2557.19C2503.1 2650.08 2400.42 2696.55 2297.11 2672.3C2214.79 2652.98 2156.25 2586.18 2134.87 2505.91C2115.83 2506.94 2096.55 2506.02 2077.47 2505.98L1628.36 2505.91C1601.28 2587.65 1534.62 2662.43 1445.86 2674.28C1430.74 2676.29 1414.46 2675.24 1399.21 2675.24H699.564C680.774 2675.24 661.429 2676.16 642.804 2673.38C557.099 2660.55 469.676 2577.19 458.113 2491.25C454.59 2465.07 456.815 2436.26 456.841 2409.8L456.836 783.954C456.853 722.305 464.372 693.531 504.757 641.718C539.27 597.44 597.019 562.64 653.074 555.805ZM1156.44 677.541L732.723 677.499C712.334 677.49 690.812 676.189 670.705 679.74C614.399 689.687 577.966 741.599 578.168 797.178L578.592 2394.48C578.558 2441.56 574.663 2482.39 611.064 2518.66C636.188 2543.69 668.433 2552.38 703.041 2552.11L925.161 2551.11L1355.7 2551.16C1376.61 2551.17 1399.78 2552.66 1420.28 2548.62C1510.82 2530.74 1508.28 2449.09 1507.98 2379.59L1508.11 899.343C1508.11 819.755 1527.85 704.007 1424.75 680.421C1399.38 674.617 1355.1 677.498 1328.17 677.498L1156.44 677.541ZM1636.86 1675.87L1634.2 1676.63C1631.16 1684.66 1633.25 1775.99 1633.25 1793.14L1633.27 2321.53C1633.29 2342.11 1634.62 2363.49 1633.23 2383.97C1689.61 2384.75 1746.11 2383.97 1802.5 2383.97L2138.74 2383.97C2145.58 2349.06 2169.03 2316.47 2193.78 2291.75C2220.48 2265.97 2253.14 2246.28 2288.73 2235.33C2287.78 2190.64 2288.73 2145.74 2288.73 2101.02L2288.73 1833.02C2211.74 1800.11 2159.01 1763.83 2134.87 1675.87C2100.22 1679.3 2063.07 1675.84 2028.15 1675.86L1677.34 1675.83C1664.09 1675.82 1650.02 1674.81 1636.86 1675.87ZM2348.66 2352.78C2257.47 2362.47 2216.24 2472.7 2290.08 2530.84C2309.79 2546.36 2335.05 2555.21 2360.14 2551.11C2411.26 2553.61 2453.47 2503.27 2455.17 2454.93C2457.08 2400.65 2401.52 2344.18 2348.66 2352.78ZM2345.77 677.541C2204.54 697.521 2239.09 888.209 2360.14 876.711C2485.62 873.151 2484.84 670.401 2345.77 677.541ZM2345.77 1518.13C2212.43 1533.16 2230.3 1725.56 2365.16 1715.35C2453.9 1700.16 2490.21 1591.27 2410.82 1535.85C2394.46 1524.43 2365.97 1512.75 2345.77 1518.13Z" fill="url(#paint0_linear_11_89)"/>
<path d="M1156.44 2043.37C1193.8 2041.72 1291.32 2039.13 1327.06 2044.31C1401.81 2055.13 1403.13 2162.08 1327.52 2174.77C1289.2 2176.38 1192.21 2179.07 1156.02 2174.03C1081.16 2163.62 1077.91 2059.83 1156.44 2043.37Z" fill="url(#paint1_linear_11_89)"/>
<path d="M767.397 928.067C808.246 926.073 849.719 928.053 890.637 928.057L1263.56 928.018C1296.94 928.01 1337.44 921.445 1363.9 946.892C1388.55 970.597 1390.19 1010.69 1365.9 1035.37C1341.3 1060.37 1308.08 1054.61 1276.01 1054.61L832.088 1054.6C830.623 1144.48 832.095 1234.67 832.102 1324.58L832.088 1822.08L832.1 1968.47C832.091 1993.41 831.308 2018.45 832.088 2043.37C863.334 2044.54 910.052 2036.61 937.133 2053.95C967.721 2073.53 976.19 2117.09 956.132 2147.16C931.704 2183.8 885.289 2174.84 847.563 2174.85C734.058 2174.87 705.95 2181.06 706.355 2064.63L706.442 1061.22C706.436 1006.91 692.783 937.559 767.397 928.067Z" fill="url(#paint2_linear_11_89)"/>
<defs>
<linearGradient id="paint0_linear_11_89" x1="1517.16" y1="553.29" x2="1517.16" y2="2678.66" gradientUnits="userSpaceOnUse">
<stop stop-color="#1CCA82"/>
<stop offset="1" stop-color="#21F7D7"/>
</linearGradient>
<linearGradient id="paint1_linear_11_89" x1="1241.19" y1="2041.24" x2="1241.19" y2="2176.95" gradientUnits="userSpaceOnUse">
<stop stop-color="#1CCA82"/>
<stop offset="1" stop-color="#21F7D7"/>
</linearGradient>
<linearGradient id="paint2_linear_11_89" x1="1044.37" y1="927.177" x2="1044.37" y2="2175.81" gradientUnits="userSpaceOnUse">
<stop stop-color="#1CCA82"/>
<stop offset="1" stop-color="#21F7D7"/>
</linearGradient>
</defs>
</svg>
