<svg width="4744" height="5348" viewBox="0 0 4744 5348" fill="none" xmlns="http://www.w3.org/2000/svg">
<path d="M50 3021.88L864.178 2167H2983V4464.5L2217.87 5298H50V3021.88Z" stroke="#1CCA82" stroke-width="100"/>
<path d="M841.946 3409.25L1037.16 3409.24C1069.06 3409.23 1101.31 3408.07 1133.16 3409.18C1191.83 3411.21 1221.77 3474.96 1174.57 3513.47C1152.32 3531.62 1076.06 3524.61 1043.61 3524.59L942.267 3524.61C926.393 3524.64 909.913 3526.13 894.144 3524.61C895.133 3535.16 895.343 3544.79 894.144 3555.36L894.149 3690.15C894.212 3717.8 901.89 3748.92 882.517 3771.89C861.177 3797.17 823.287 3800.88 798.581 3778.17C771.5 3753.27 779.512 3708.41 779.526 3675.27L779.477 3498.83C779.313 3451.62 784.696 3411.86 841.946 3409.25Z" fill="url(#paint0_linear_1_19)"/>
<path d="M1887.01 3409.25C1904.26 3408.28 1921.78 3409.2 1939.06 3409.23L2137.83 3409.21C2179.26 3409.05 2232.7 3400.8 2251.54 3448.95C2257.71 3464.73 2258.12 3739.34 2252.39 3751.1C2242.24 3771.89 2227.5 3784.65 2204.2 3789.68C2177.86 3792.55 2142.16 3776.73 2137.63 3747.75C2135.19 3732.13 2138.57 3708.91 2138.59 3692.14L2138.62 3524.61C2081.85 3523.86 2024.98 3524.63 1968.2 3524.65C1921.84 3524.66 1844.94 3537.86 1835.35 3473.62C1830.53 3441.25 1855.49 3412.93 1887.01 3409.25Z" fill="url(#paint1_linear_1_19)"/>
<path d="M1502.35 2672.83C1541.25 2668.87 1557.66 2685.19 1590.16 2703.53L1820.29 2833.54C1913.45 2885.82 1911.86 2869.25 1911.82 2981.19L1911.86 3228.58C1911.9 3310.05 1923.31 3311.63 1847.85 3354.63L1574.32 3509.79L1574.32 3782.97C1574.32 3832.27 1573.42 3881.73 1574.32 3931.02C1598.05 3943.53 1620.8 3957.91 1644.27 3970.92L1875.83 4100.37C1899.13 4091.04 1925.19 4074.02 1947.3 4061.52L2109.09 3971.72C2204.1 3919.87 2183.64 3917.46 2274.29 3967.16L2511.22 4097.69C2535.56 4111.36 2575.17 4124.72 2576.08 4158.07C2576.9 4188.5 2576.19 4219.15 2576.19 4249.6L2576.24 4520.45C2576.25 4545.45 2582.13 4573.79 2563.11 4593.45C2546.11 4611.02 2485.5 4640.31 2460.47 4654.36L2305.23 4741.98C2263.54 4765.48 2215.36 4809.22 2165.44 4787.97C2143 4778.41 2109.11 4755.19 2086.41 4742.28L1891.24 4631.48C1823.9 4592.75 1811.93 4603.06 1811.9 4517.7L1811.94 4195.28L1528.7 4036.01L1515.82 4027.62C1482.17 4045.81 1449.22 4066.01 1416.1 4085.19L1218.99 4198.92C1217.76 4228.48 1218.97 4258.51 1218.99 4288.13L1219.03 4467.35C1219.03 4503.72 1230.09 4578.12 1196.34 4602.35C1188.3 4608.12 1178.66 4612.6 1170.05 4617.48L1122.87 4644.71C1048.95 4687.31 973.78 4727.86 900.318 4771.18C829.049 4813.2 813.701 4792.22 743.301 4751.35C727.924 4742.42 712.066 4734.42 696.563 4725.74L538.503 4636.16C513.767 4622.28 467.988 4605.54 458.292 4575.83C454.549 4564.35 456.87 4419.9 456.864 4396.34L456.821 4239.54C456.819 4212.57 455.616 4184.94 457.175 4158.03C459.354 4120.39 537.137 4089.19 570.54 4070.39L746.353 3972.85C849.416 3916.12 825.1 3918.87 936.628 3978.64L1159.82 4100.37C1188.12 4082.57 1217.61 4066.89 1246.63 4050.33L1386 3970.8C1401.24 3962.23 1445.6 3934.02 1458.7 3931.02V3509.79L1453.16 3506C1443.25 3499.17 1432.33 3493.93 1421.83 3488.07L1230.37 3382.39C1130.21 3328.34 1122.27 3341.34 1122.28 3220.51L1122.25 2973.33C1122.19 2864.56 1132.13 2878.43 1224.42 2826.84L1335.3 2764.35C1361.37 2749.69 1485.57 2674.63 1502.35 2672.83ZM1798.3 3009.7C1770.91 3017.13 1607.63 3110.9 1574.32 3131.73C1575.92 3193.57 1574.32 3255.91 1574.35 3317.81C1574.35 3331.35 1572.26 3366.72 1574.32 3377.9C1648.95 3341.79 1725.72 3292.99 1798.3 3252.07L1798.27 3057.95C1798.27 3052.85 1799.33 3010.34 1798.79 3009.59L1798.3 3009.7ZM1240.51 3009.7C1237.73 3090.38 1241.43 3174.29 1240.51 3255.52C1308.33 3298.09 1388.19 3339.66 1458.7 3377.9C1460.12 3351.26 1458.68 3323.94 1458.67 3297.22L1458.7 3131.73C1428.49 3112.06 1395.83 3096.08 1364.58 3078.15C1327.26 3056.75 1279.59 3026.68 1240.51 3009.7ZM567.994 4270.96V4518.88C594.405 4532.86 770.538 4636.89 779.572 4637.74C781.722 4614.98 779.545 4584.5 779.555 4560.89L779.572 4388.89C729.979 4360.18 679.633 4332.79 629.523 4305L588.558 4282.22C582.028 4278.56 574.963 4273.58 567.994 4270.96ZM1927.91 4270.96C1928.7 4354.61 1926.58 4438.35 1927.91 4521.99C1995.14 4556.02 2071.25 4610.94 2138.62 4637.74V4388.89C2117.7 4375.26 2095.3 4364.05 2073.53 4351.89L1927.91 4270.96ZM1102.95 4270.96C1086.09 4279.04 1070.32 4289.3 1054.03 4298.44L944.883 4360.47C928.218 4370.03 911.562 4380.79 894.144 4388.89C894.153 4411.87 893.215 4636.07 894.144 4637.74C964.769 4602.83 1033.42 4559.56 1102.95 4521.99L1103.09 4301.42C1103.18 4291.36 1103.87 4280.98 1102.95 4270.96ZM2465.33 4270.96C2419.73 4291.51 2375.62 4319.53 2332.44 4344.66C2306.82 4359.58 2279.97 4372.92 2255.01 4388.89C2253.94 4411.06 2254.99 4433.6 2255.01 4455.82L2255.03 4588.47C2255.03 4593.36 2252.85 4632.56 2254.22 4634.25L2255.01 4634.04C2274.44 4624.59 2293.17 4613.64 2312.03 4603.11L2401.7 4552.82C2421.25 4541.83 2441.09 4528.86 2461.79 4520.36L2465.33 4518.88C2464.52 4449.15 2459.1 4340.05 2466.07 4272.56L2465.33 4270.96ZM1515.82 2793.23C1495.87 2807.59 1473.21 2817.9 1451.9 2830.05L1304.35 2912.95C1325.81 2930.09 1514.91 3031.85 1515.82 3031.93C1568.07 3005.09 1682.99 2947.1 1728.63 2912.95C1713.72 2903.96 1518.52 2793.55 1515.82 2793.23ZM2196.66 4055.18C2147.27 4070.12 2034.44 4144.21 1983.44 4171.26C2002.51 4180.69 2196.03 4288.8 2196.66 4288.84C2257 4253.71 2346.88 4199 2409.67 4171.26C2384.19 4153.3 2354.75 4139.81 2327.57 4124.51L2240.98 4076.52C2230.15 4070.63 2209.46 4053.98 2196.66 4055.18ZM838.223 4055.18C772.036 4088.97 691.5 4131.47 628.135 4171.26C697.364 4210.74 769.05 4246 838.223 4285.68C902.693 4253.18 982.56 4196.5 1045.12 4171.26C1031.26 4158.53 1010.94 4149.64 994.373 4140.58L858.638 4066.64C851.982 4062.94 845.164 4058.15 838.223 4055.18Z" fill="url(#paint2_linear_1_19)"/>
<defs>
<linearGradient id="paint0_linear_1_19" x1="988.139" y1="3408.7" x2="988.139" y2="3793.22" gradientUnits="userSpaceOnUse">
<stop stop-color="#44D864"/>
<stop offset="1" stop-color="#4BD7D5"/>
</linearGradient>
<linearGradient id="paint1_linear_1_19" x1="2045.6" y1="3408.58" x2="2045.6" y2="3790.01" gradientUnits="userSpaceOnUse">
<stop stop-color="#44D864"/>
<stop offset="1" stop-color="#4BD7D5"/>
</linearGradient>
<linearGradient id="paint2_linear_1_19" x1="1516.63" y1="2672.23" x2="1516.63" y2="4794.16" gradientUnits="userSpaceOnUse">
<stop stop-color="#44D864"/>
<stop offset="1" stop-color="#4BD7D5"/>
</linearGradient>
</defs>
</svg>
