<svg width="3033" height="3231" viewBox="0 0 3033 3231" fill="none" xmlns="http://www.w3.org/2000/svg">
<path d="M50 904.881L864.178 50H2983V2347.5L2217.87 3181H50V904.881Z" stroke="#1CCA82" stroke-width="100"/>
<path d="M708.755 555.802C722.553 554.635 737.389 555.771 751.298 555.772L844.289 555.77C922.722 555.768 1003.45 554.016 1081.63 555.939C1109.76 556.631 1133.19 576.925 1155.94 591.819L1268.08 665.507C1341.68 712.759 1335.7 722.82 1335.71 801.561L1335.74 1012.31C1335.78 1026.98 1337.32 1042.78 1335.69 1057.28C1393.08 1058.85 1450.97 1057.3 1508.41 1057.29L1980.55 1057.23C2060.81 1057.21 2145.48 1064.05 2165.07 1165.2C2170.21 1191.74 2168.2 1221.1 2168.2 1248.06L2168.16 1791.6C2191.39 1791.53 2317.92 1788.55 2330.67 1794.75C2344.87 1801.64 2357.62 1811.1 2370.83 1819.65C2425.03 1854.74 2479.29 1890.42 2532.62 1926.82C2582.59 1960.91 2576.23 1958.27 2576.23 2015.04L2576.18 2363.81C2576.18 2385.14 2580.78 2498.95 2572.2 2511.96C2561.12 2528.77 2542.83 2537.89 2526.33 2548.52L2390.24 2638.12C2371.54 2650.6 2349 2670.69 2326.44 2675.18L1987.08 2675.31C1924.97 2675.46 1931.34 2665.22 1878.27 2630.82L1781.04 2568.1C1684.6 2504.55 1695.23 2512.79 1695.22 2401.75L1695.25 2257.17L1075.32 2257.21C986.24 2257.25 888.333 2254.08 867.573 2140.21C862.417 2111.92 864.709 2081.39 864.713 2052.65L864.751 1435.79C829.948 1436.3 795.066 1435.86 760.255 1435.86C682.365 1435.88 694.83 1435.54 634.223 1394.95L565.113 1349.66C536.533 1330.73 501.331 1309.77 474.729 1289.35C445.767 1267.13 456.878 1217.52 456.91 1183.26L456.807 770.109C456.815 738.787 455.923 716.687 484.053 695.616C512.66 674.188 544.455 656.155 574.208 636.287L649.835 586.834C668.235 574.749 686.092 558.466 708.755 555.802ZM1335.69 1185.44C1336.18 1292.63 1335.33 1268.73 1247.33 1329.43L1171.24 1381.26C1078.25 1445.43 1108.56 1431.49 994.019 1435.79L994.011 2042.53C994.015 2067.4 993.124 2092.56 994.019 2117.39C998.254 2122.06 1002.54 2125.85 1007.57 2129.64C1028.48 2130.85 1049.77 2129.68 1070.72 2129.66L1626.63 2129.64C1647.5 2129.65 1668.72 2128.9 1689.53 2130.6L1690.07 2131.73L1690.03 2130.66L1694.69 2130.64L1695.25 2129.64L1695.2 2032.48C1695.12 1934.86 1704.24 1950.2 1783.38 1898.12C1830.13 1867.36 1876.49 1835.05 1924.19 1805.86C1961.78 1782.85 1995.55 1791.65 2039.01 1791.6V1201.95C2035.11 1194.79 2032.12 1189.87 2024.99 1185.44H1335.69ZM1825.4 2106.32V2444.6C1870.55 2466.62 1945.88 2521.88 1988.35 2551.25C2000.27 2551.27 2070.27 2553.02 2076.73 2551.25V2263.53C2055.18 2250.61 2034.32 2236.55 2013.05 2223.18L1903.14 2154.5C1877.41 2138.26 1852.06 2121.01 1825.4 2106.32ZM1207.45 862.618C1183.87 876.067 1161.31 891.622 1138.54 906.392L993.616 1000.04C981.732 1007.65 969.428 1014.75 958.217 1023.35C952.746 1107.93 956.392 1222.1 958.217 1307.48H1051.07C1097.23 1280.29 1163.69 1234.2 1207.45 1201.95C1206.67 1185.33 1207.43 1168.56 1207.44 1151.92L1207.44 929.429C1207.4 907.128 1206.8 884.92 1207.45 862.618ZM2454.17 2106.32C2427.51 2118.89 2401.89 2135.83 2377.02 2151.65L2302.35 2199.12C2271.71 2218.84 2232.45 2241.24 2204.65 2263.53L2204.68 2457.14C2204.68 2488.31 2206.17 2520.17 2204.65 2551.25C2232.36 2551.59 2260.11 2551.4 2287.82 2551.25C2313.76 2530.33 2430.29 2452.64 2454.17 2444.6C2452.51 2371.98 2454.21 2298.92 2454.19 2226.26L2454.09 2159.26C2454.03 2153.48 2454.78 2107.02 2454.17 2106.32ZM582.966 868.512V1206.47C597.36 1214.35 611.041 1224.19 624.756 1233.2L701.316 1283.76C713.566 1291.83 725.746 1300.46 738.627 1307.48H828.983L829.04 1054.99C829.051 1044.52 829.671 1033.77 828.983 1023.35C746.887 971.825 666.057 918.434 582.966 868.512ZM757.347 677.247C726.781 677.744 716.069 693.21 690.413 710C671.832 722.162 652.789 733.577 634.212 745.731C644.07 753.67 655.523 759.887 666.235 766.621L895.625 910.935L980.946 856.975C1025.52 827.912 1111.3 766.631 1157.52 745.731C1134.07 725.235 1082.8 694.76 1055.31 677.247H757.347ZM1997.68 1918.26C1977.9 1919.6 1898.49 1973.59 1880.03 1989.38C1965.62 2043.08 2054.61 2093.83 2136.39 2153.33C2167.24 2137.72 2196.47 2116.12 2225.26 2096.85C2281.67 2060.64 2337.66 2024 2395.08 1989.38C2358.61 1966.88 2324.46 1940.57 2287.82 1918.26L2093.95 1918.3C2062 1918.3 2029.55 1919.64 1997.68 1918.26Z" fill="url(#paint0_linear_1_26)"/>
<defs>
<linearGradient id="paint0_linear_1_26" x1="1516.1" y1="555.038" x2="1516.1" y2="2675.31" gradientUnits="userSpaceOnUse">
<stop stop-color="#4ACA71"/>
<stop offset="1" stop-color="#27E7D1"/>
</linearGradient>
</defs>
</svg>
