<svg width="3033" height="3231" viewBox="0 0 3033 3231" fill="none" xmlns="http://www.w3.org/2000/svg">
<path d="M50 904.881L864.178 50H2983V2347.5L2217.87 3181H50V904.881Z" stroke="#1CCA82" stroke-width="100"/>
<path d="M987.846 710.352C1003.68 709.224 1020.29 710.27 1036.2 710.295L1946.21 710.333C2120.57 710.345 2339.68 730.5 2485.05 832.932C2559.42 885.333 2576.23 927.315 2576.23 1010.03V2164.98C2576.26 2223.76 2584.11 2270.29 2547.44 2320.99C2456.89 2446.15 2245.93 2488.08 2097.15 2500.97C2079.76 2502.48 2061.98 2503.2 2044.76 2506.01L2042.91 2506.32C1960.09 2504.88 1876.98 2506.33 1794.13 2506.33L1110.58 2506.36C926.603 2506.36 679.183 2488.95 534.022 2369.91C452.297 2302.89 456.881 2265.44 456.867 2174.46L456.82 1025.22C456.695 959.743 453.877 931.024 499.604 876.07C602.927 751.899 831.527 724.168 987.846 710.352ZM1182.65 842.431L1060.14 842.414C931.078 842.396 694.653 868.822 607.478 955.99C588.37 975.096 584.8 986.765 584.553 1013.46L584.502 1047.05C584.643 1072.45 580.998 1139.19 588.613 1159.7C617.531 1237.6 852.065 1278.82 925.834 1287.18C985.786 1293.98 1045.5 1293.82 1105.71 1293.82L1853.43 1293.81C2010.92 1293.9 2319.65 1292.37 2428.88 1182.78C2456.47 1155.1 2448.09 1115.41 2447.94 1079.66C2447.77 1039.49 2457.14 985.331 2426.62 955.728C2318.83 851.182 2047.95 842.404 1894.42 842.41L1182.65 842.431ZM584.468 1859.68L584.329 2176.33C584.255 2190.96 583.082 2206.76 585.847 2221.17C604.639 2319.12 868.472 2359.6 948.26 2368.36C1005.1 2374.6 1062.21 2373.47 1119.28 2373.45L1981.63 2373.44C2081.38 2373.1 2449.7 2343.06 2448.54 2198.43L2447.97 2088.05V1859.68C2356.74 1923.24 2192.05 1951.74 2083.3 1964.98C2060.24 1967.79 2036.19 1971.86 2012.95 1971.99C2013.3 1993.44 2012.91 2014.87 2012.91 2036.32C2012.92 2093.21 2008.89 2143.43 1937.03 2144.35C1870.4 2145.2 1803.66 2144.42 1737.02 2144.42L1115.13 2144.49C1049.56 2144.52 1019.57 2127.79 1019.7 2058.11L1019.74 2003.11C1019.68 1992.93 1018.87 1982.1 1019.78 1971.99C880.36 1953.29 745.095 1943.79 616.299 1876.29C605.876 1870.82 595.298 1864.16 584.468 1859.68ZM584.468 1326.53C583.846 1352.77 584.474 1379.09 584.479 1405.34L584.413 1641.55C584.523 1670.55 582.331 1690.27 603.678 1712.82C675.332 1788.51 916.2 1826.91 1019.78 1836.02C1021.21 1732.38 989.192 1651.78 1123.97 1652.19L1876.62 1652.26C1982.14 1652.19 2013.12 1647.41 2013.04 1761.28L2012.95 1836.02C2119.76 1819.21 2202.64 1812.41 2309.42 1777.52C2352.42 1762.67 2421.5 1736.41 2442.19 1693.85C2450.83 1676.06 2448.05 1655.73 2448.04 1636.51L2447.99 1566.74C2447.91 1486.7 2447.12 1406.56 2447.97 1326.53C2287.23 1421.14 2070.49 1427.84 1887.68 1427.82L1076.35 1427.86C938.071 1427.78 764.408 1407.99 635.189 1351.58C618.005 1344.08 601.88 1333.14 584.468 1326.53ZM1492.31 1784.25L1266.61 1784.26C1229.47 1784.27 1191.91 1785.6 1154.84 1784.25V2011.83H1544.36H1880.29V1784.25H1492.31Z" fill="url(#paint0_linear_11_15)"/>
<defs>
<linearGradient id="paint0_linear_11_15" x1="1516.85" y1="709.83" x2="1516.85" y2="2506.36" gradientUnits="userSpaceOnUse">
<stop stop-color="#1CCA82"/>
<stop offset="1" stop-color="#16DBDB"/>
</linearGradient>
</defs>
</svg>
