<svg width="3033" height="3231" viewBox="0 0 3033 3231" fill="none" xmlns="http://www.w3.org/2000/svg">
<path d="M50 904.881L864.178 50H2983V2347.5L2217.87 3181H50V904.881Z" stroke="#1CCA82" stroke-width="100"/>
<path d="M1487.92 555.776C1549.51 550.467 1560.71 575.186 1599.21 618.789C1686.91 718.091 1745.94 839.509 1766.97 970.542C1816.94 931.194 1874.07 808.763 1944.72 879.256C1961.66 896.158 1970.16 923.438 1978.39 945.462C2056.74 1154.83 2082.08 1479.47 1913.07 1650.13C1841.11 1722.8 1738.05 1767.08 1634.97 1743.6C1588.59 1733.03 1561.57 1716.18 1510.93 1716.41C1468.57 1718.98 1438.99 1733.5 1399.05 1742.52C1323.71 1759.53 1248.85 1740.22 1184.86 1699.43C972.863 1564.27 962.813 1245.3 1067.23 1040.51C1096.74 982.644 1138.16 933.767 1150.11 868.166C1154.43 844.441 1151.65 817.016 1165.46 796.198C1184.63 767.285 1222.64 759.557 1251.29 779.266C1293.49 808.298 1313.65 877.207 1322.6 925.532C1401.04 883.826 1438.74 730.255 1442.27 650.721C1443.82 615.883 1439.78 563.731 1487.92 555.776ZM1552.91 767.862C1533.06 864.939 1480.87 972.018 1395.98 1027.77C1335.49 1067.5 1273.71 1078.35 1209.08 1045.3C1111.05 1192.78 1076.78 1477.71 1243.45 1587.18C1318.38 1636.4 1371.2 1618.74 1445.12 1595.05C1490.91 1580.37 1541.89 1582.32 1587.76 1595.34C1654.65 1614.66 1706.05 1634.76 1772.81 1597.98C1921.13 1516.25 1923.11 1286.99 1901.08 1141.92C1895.8 1107.19 1889.27 1070.61 1875.76 1038.06C1844.55 1074.06 1820.25 1093.6 1786.33 1124.59C1755.18 1153.04 1716.9 1195.02 1670.55 1153.74C1639.8 1126.36 1649.47 1077.04 1647.01 1040.16C1641.71 960.786 1607.85 830.447 1552.91 767.862Z" fill="url(#paint0_linear_12_161)"/>
<path d="M2455.26 1428.19C2434.85 1427.57 2414.23 1428.16 2393.79 1428.18L2273.47 1428.27C2250.49 1428.28 2218.23 1430.86 2196.17 1426.32C2129.42 1412.61 2131.27 1304.65 2216.32 1303.27C2284.68 1302.15 2353.21 1303.36 2421.58 1303.34L2485.23 1303.18C2591.93 1302.84 2577.4 1341.19 2577.18 1425.75L2577.22 2588.11C2577.24 2677.53 2566.52 2675.24 2489.08 2675.24L561.998 2675.13C528.296 2675.31 466.972 2684.28 458.594 2638.06C456.47 2626.34 457.809 2612.72 457.814 2600.75L457.813 1460.57C457.805 1426.48 457.104 1392.22 457.888 1358.14C458.664 1324.42 481.498 1308.95 513.329 1303.27C526.379 1302.21 540.346 1303.23 553.496 1303.23L758.326 1303.25C792.716 1303.26 838.395 1295.5 866.209 1320.13C891.473 1342.5 893.29 1382.54 870.751 1407.54C844.78 1436.34 803.036 1428.22 768.27 1428.23L641.565 1428.21C620.713 1428.19 599.508 1427.09 578.717 1428.19V1991.85H2233.49C2307.37 1991.85 2381.4 1992.95 2455.26 1991.85L2455.26 1615.87C2455.26 1553.38 2453.95 1490.65 2455.26 1428.19ZM1074.38 2116.87L639.706 2116.84C619.425 2116.84 598.973 2116.21 578.717 2116.87L578.792 2505.69C578.837 2521.87 579.783 2538.35 578.717 2554.47H964.007H1456.04C1455.18 2530.64 1456.17 2506.79 1456.18 2482.94L1455.95 2185.06C1455.98 2162.44 1455 2139.44 1456.04 2116.87H1074.38ZM1582.9 2116.87L1579.73 2117.68C1574.44 2127.48 1578.43 2221.15 1578.42 2238.96L1578.43 2476.44C1578.45 2499.61 1580.42 2532.31 1578.42 2554.47H2357.3C2388.44 2554.48 2420.25 2556.13 2451.29 2554.47L2453.59 2554C2456.45 2542.72 2455.14 2527.6 2455.2 2515.92L2455.25 2228.28C2455.23 2191.29 2453.82 2153.78 2455.26 2116.87L1612.35 2116.8C1602.65 2116.79 1592.55 2116.12 1582.9 2116.87Z" fill="url(#paint1_linear_12_161)"/>
<defs>
<linearGradient id="paint0_linear_12_161" x1="1520.79" y1="555.064" x2="1520.79" y2="1749.92" gradientUnits="userSpaceOnUse">
<stop stop-color="#1CCA82"/>
<stop offset="1" stop-color="#20E6BE"/>
</linearGradient>
<linearGradient id="paint1_linear_12_161" x1="1517.67" y1="1302.1" x2="1517.67" y2="2675.94" gradientUnits="userSpaceOnUse">
<stop stop-color="#1CCA82"/>
<stop offset="1" stop-color="#20E6BE"/>
</linearGradient>
</defs>
</svg>
