<svg width="3033" height="3231" viewBox="0 0 3033 3231" fill="none" xmlns="http://www.w3.org/2000/svg">
<path d="M50 904.881L864.178 50H2983V2347.5L2217.87 3181H50V904.881Z" stroke="#1CCA82" stroke-width="100"/>
<path d="M1405.73 1179.22C1416.96 1177.58 1430.59 1179.19 1442.1 1179.19L1691.79 1179.19C1724.6 1179.2 1770.85 1171.18 1799.36 1190.46C1846.14 1222.09 1828.13 1296.49 1773.9 1305.38C1751.75 1306.72 1728.78 1305.43 1706.53 1305.41L1464.16 1305.42C1436.67 1305.43 1400.56 1311.06 1376.61 1294.29C1325.7 1258.66 1347.12 1187.82 1405.73 1179.22Z" fill="url(#paint0_linear_11_80)"/>
<path d="M788.819 1708.82C805.94 1707.42 824.354 1708.76 841.591 1708.77H1080.41C1102.16 1708.76 1124.44 1707.64 1146.1 1709.15C1220.93 1714.36 1230.62 1816.27 1152.07 1836.6C1127.34 1837.6 1102.35 1836.62 1077.58 1836.6L839.287 1836.59C813.545 1836.61 786.459 1840.62 763.524 1826.18C714.809 1795.51 725.406 1722.43 788.819 1708.82Z" fill="url(#paint1_linear_11_80)"/>
<path d="M1405.73 930.978C1419.62 929.49 1435.14 930.874 1449.23 930.895L1687.75 930.957C1712.17 930.945 1765.8 926.033 1787.66 935.382C1846.65 960.606 1837.96 1034.03 1773.9 1058.34C1753.7 1060.22 1731.84 1058.41 1711.46 1058.37L1458.75 1058.36C1431.83 1058.37 1401.06 1064.31 1377.19 1048.92C1328.53 1017.56 1341.46 944.161 1405.73 930.978Z" fill="url(#paint2_linear_11_80)"/>
<path d="M788.819 1463.03C811.484 1461.47 835.343 1463.04 858.145 1463.04L1193.84 1463.02C1225.1 1463.02 1256.88 1461.74 1288.08 1463.15C1359.68 1466.37 1375.45 1563.29 1294.44 1589.23C1286.35 1590.11 1277.88 1589.43 1269.73 1589.35L824.439 1589.26C802.625 1589.26 780.664 1591.81 761.242 1579.77C711.478 1548.92 727.209 1476.15 788.819 1463.03Z" fill="url(#paint3_linear_11_80)"/>
<path d="M915.935 833.466L991.555 833.414C1056.07 833.391 1103.05 836.228 1152.66 884.089C1216.08 945.267 1208.57 1002.27 1209 1080.33C1209.11 1101.27 1210.45 1123.15 1208.05 1143.97C1198.38 1227.51 1119.13 1304.15 1034.23 1305.38L960.08 1305.43C943.205 1305.44 925.977 1306.16 909.157 1304.87C814.981 1297.63 742.493 1226.27 736.946 1131.11C732.336 1052.05 726.763 955.903 781.191 894.968C817.914 853.857 861.824 836.405 915.935 833.466ZM915.935 958.452C851.225 967.514 861.437 1027.18 861.61 1075.23C861.727 1108.58 854.796 1146.39 886.066 1168.82C908.278 1184.76 998.515 1179.62 1030.01 1179.22C1092.91 1168.42 1082.9 1114.29 1083 1064.9C1083.23 961.96 1074.47 958.334 976.408 958.339C956.451 958.339 935.813 957.286 915.935 958.452Z" fill="url(#paint4_linear_11_80)"/>
<path d="M519.899 555.805C548.885 553.223 578.981 555.749 608.093 555.78L1956.97 555.82C2015.41 555.651 2088.08 538.568 2091.26 622.121C2093.39 677.865 2091.53 734.324 2091.52 790.135L2091.64 1374.84C2091.66 1386.71 2092.34 1399.12 2091.15 1410.93C2083.74 1484.53 1974.45 1487.54 1965.55 1413.59C1962.51 1388.41 1964.58 1361 1964.57 1335.59L1964.53 676.768C1944.64 678.284 1924.73 676.88 1904.81 676.803L691.539 676.773C660.607 676.778 629.485 677.634 598.58 676.768C597.099 689.139 598.471 702.923 598.505 715.439L598.58 1079.88V2381.87L1280.7 2381.96C1305.7 2381.95 1333.1 2379.72 1357.66 2381.83C1404.09 2385.8 1430.34 2439.33 1404.09 2477.61C1383.82 2507.15 1358 2504.93 1326.23 2504.9L597.325 2504.82C551.543 2504.87 482.571 2513.72 472.653 2449.91C469.375 2428.81 471.497 2405 471.559 2383.61L471.586 1029.41C471.587 919.13 470.524 808.722 471.982 698.454C472.567 654.17 457.54 565.018 519.899 555.805Z" fill="url(#paint5_linear_11_80)"/>
<path d="M1680.22 1543.01L2306.75 1542.98C2338.82 1542.97 2373.34 1540.43 2404.89 1546.84C2482.81 1562.68 2541.72 1627.46 2555.39 1704.87C2560.97 1736.46 2558.78 1770.53 2558.76 1802.54L2558.75 2471.24C2558.47 2582.13 2481.18 2676.09 2366.45 2675.18L1713.83 2675.24C1690.89 2675.25 1664.31 2677.54 1641.95 2673.79C1562.77 2660.55 1494.08 2577.69 1487.77 2499.76C1486.27 2481.17 1487.05 2462.21 1487.09 2443.56L1487.11 1836.8C1487.08 1798.39 1484.31 1743.65 1489.95 1706.98C1505.02 1608.94 1583.87 1550.26 1680.22 1543.01ZM1680.22 1668.05C1609.87 1678.14 1615.1 1737.8 1615.27 1789.19L1615.3 2398.58C1615.3 2421.87 1614.93 2445.22 1615.52 2468.5C1617.66 2552.01 1661.73 2550.57 1730.29 2550.41L2285.41 2550.37C2339.02 2550.41 2423.73 2564.07 2433.6 2487.83C2435.62 2472.2 2434.86 2455.63 2434.89 2439.88L2434.84 2109.87L2310.65 2224.77C2281.59 2251.62 2242.29 2301.14 2195.74 2268.86C2175.09 2254.54 2153.54 2227.95 2135.26 2209.62L2003.34 2077.75L1996.99 2083.02L1847.14 2215.3C1815.99 2242.72 1786.08 2285.73 1739.45 2278.04C1692.78 2270.35 1670.61 2213.52 1703.4 2177.33C1713.25 2166.46 1725.6 2157.58 1736.64 2147.94L1913.35 1990.89C1947.81 1959.76 1993.24 1905.46 2043.19 1945.14C2065.34 1962.74 2090.99 1991.97 2111.77 2012.49L2188.03 2088.89C2201.76 2102.59 2216.83 2115.96 2229.6 2130.5C2298.16 2075.6 2368.6 2000.06 2434.84 1940L2434.79 1792.08C2434.81 1770.75 2437.56 1741.43 2433.48 1721.2C2420.02 1654.51 2335.54 1667.97 2286.09 1668.01L1731.49 1668.06C1715.12 1668.01 1696.31 1665.54 1680.22 1668.05Z" fill="url(#paint6_linear_11_80)"/>
<defs>
<linearGradient id="paint0_linear_11_80" x1="1587.1" y1="1177.54" x2="1587.1" y2="1306.34" gradientUnits="userSpaceOnUse">
<stop stop-color="#1CCA82"/>
<stop offset="1" stop-color="#4EE2D1"/>
</linearGradient>
<linearGradient id="paint1_linear_11_80" x1="969.9" y1="1708.18" x2="969.9" y2="1837.12" gradientUnits="userSpaceOnUse">
<stop stop-color="#1CCA82"/>
<stop offset="1" stop-color="#4EE2D1"/>
</linearGradient>
<linearGradient id="paint2_linear_11_80" x1="1587.5" y1="929.657" x2="1587.5" y2="1059.49" gradientUnits="userSpaceOnUse">
<stop stop-color="#1CCA82"/>
<stop offset="1" stop-color="#4EE2D1"/>
</linearGradient>
<linearGradient id="paint3_linear_11_80" x1="1040.24" y1="1462.34" x2="1040.24" y2="1589.67" gradientUnits="userSpaceOnUse">
<stop stop-color="#1CCA82"/>
<stop offset="1" stop-color="#4EE2D1"/>
</linearGradient>
<linearGradient id="paint4_linear_11_80" x1="971.826" y1="833.414" x2="971.826" y2="1305.64" gradientUnits="userSpaceOnUse">
<stop stop-color="#1CCA82"/>
<stop offset="1" stop-color="#4EE2D1"/>
</linearGradient>
<linearGradient id="paint5_linear_11_80" x1="1281.54" y1="554.272" x2="1281.54" y2="2505.27" gradientUnits="userSpaceOnUse">
<stop stop-color="#1CCA82"/>
<stop offset="1" stop-color="#4EE2D1"/>
</linearGradient>
<linearGradient id="paint6_linear_11_80" x1="2022.8" y1="1542.47" x2="2022.8" y2="2675.94" gradientUnits="userSpaceOnUse">
<stop stop-color="#1CCA82"/>
<stop offset="1" stop-color="#4EE2D1"/>
</linearGradient>
</defs>
</svg>
