<svg width="3033" height="3231" viewBox="0 0 3033 3231" fill="none" xmlns="http://www.w3.org/2000/svg">
<path d="M50 904.881L864.178 50H2983V2347.5L2217.87 3181H50V904.881Z" stroke="#1CCA82" stroke-width="100"/>
<path d="M2201.74 2203.16C2203.41 2202.97 2202.74 2203 2204.49 2203L2376.4 2203.15C2450.68 2203.08 2543.67 2191.1 2566.2 2288.7C2572.13 2314.41 2569.1 2360.98 2569.11 2389.33L2569.13 2567.58C2569.08 2626.41 2530.16 2675.4 2469.04 2675.18L2217.83 2675.23C2107.63 2675.25 2101.09 2620.07 2101.01 2521.24V2346.06C2101.07 2268.92 2117.36 2219.1 2201.74 2203.16ZM2326.63 2323.72H2224.03L2224.04 2475.52C2224.04 2503.17 2224.63 2530.95 2224.03 2558.58H2350.68H2450.04L2449.96 2349.27C2449.95 2340.89 2449.31 2332.05 2450.04 2323.72C2408.98 2323.68 2367.67 2322.68 2326.63 2323.72Z" fill="url(#paint0_linear_11_63)"/>
<path d="M548.124 555.805C548.802 555.754 549.483 555.725 550.163 555.722L755.918 555.846C810.867 555.778 858.423 542.645 899.729 583.978C929.719 613.986 930.901 643.079 930.893 682.985L930.817 739.795L2058.2 739.843C2072.48 739.849 2086.76 740.464 2101.04 739.795C2097.42 666.985 2093.97 556.31 2193.46 555.817L2455.09 555.784C2506.1 555.826 2550.69 572.464 2565.24 628.769C2572.35 656.295 2569 700.206 2569 729.739L2569.2 867.217C2569.24 918.187 2572.21 957.747 2533.12 996.45C2491.48 1037.68 2436.32 1027.91 2382.52 1027.81L2231.95 1027.75C2115.11 1027.62 2100.66 953.203 2101.04 855.921H1576.94C1575.5 888.325 1576.88 921.384 1576.89 953.855L1576.94 1150C1710.37 1187.51 1778.27 1337.04 1715.84 1460.96C1783.92 1460.83 1837.36 1460.97 1889.31 1512.74C1924.77 1548.07 1940.72 1590.47 1940.92 1639.9L1940.81 1834.36C1940.83 1870.7 1944.21 1933.35 1936.24 1966.73C1921.09 2030.21 1871.29 2082.71 1807.79 2098.92C1773.62 2107.64 1734.94 2104.43 1699.8 2104.43L1576.94 2104.4L1577.23 2332.07C1577.67 2411.43 1513.9 2482.2 1435.12 2490.32C1421.03 2491.78 1406.71 2491.28 1392.57 2491.27L1332 2491.2H930.817L930.893 2547.18C930.863 2586.38 930.056 2613.92 902.252 2644.42C866.454 2683.7 827.531 2675.18 779.95 2675.13L589.053 2675.28C552.207 2675.36 526.69 2675.99 498.003 2648.73C447.565 2600.82 465.196 2469.99 465.208 2402.76C465.224 2315.31 452.34 2205.48 579.706 2203.19C632.767 2202.24 686.003 2203.09 739.08 2203.1C793.774 2203.11 855.242 2191.37 897.921 2233.05C939.496 2273.66 930.535 2320.41 930.817 2373.11L1364.86 2373.18C1473.15 2373.28 1456.65 2358.96 1456.66 2263.35L1456.61 2104.4L1337.94 2104.43C1262.57 2104.52 1204.52 2110.21 1146.01 2051.83C1082.04 1988 1092.77 1914.11 1092.82 1831.27L1092.82 1642.83C1093 1593.36 1107.02 1547.42 1143.04 1512.01C1197.67 1458.31 1245.89 1460.33 1317.24 1460.96C1313.4 1448.72 1308.25 1436.91 1304.53 1424.6C1267.98 1303.88 1337.55 1185.25 1456.61 1150C1454.89 1119.42 1456.57 1085.19 1456.58 1054.09L1456.61 855.921C1437.31 855.095 1417.74 855.883 1398.4 855.896L930.817 855.921C931.086 983.044 918.433 1027.78 777.132 1027.86L606.635 1027.87C592.117 1027.86 576.436 1029.02 562.124 1026.61C469.757 1011.06 465.245 939.468 465.225 866.839L465.19 695.121C465.048 636.243 472.622 565.721 548.124 555.805ZM1268.42 1578.7C1207 1586.93 1213.49 1635.58 1213.68 1681.57L1213.69 1875.99C1213.52 1969.97 1212.46 1986.77 1320.37 1986.68L1764.87 1986.6C1824.88 1974.5 1818.39 1927.19 1818.33 1880.42L1818.44 1692.73C1819.69 1581.7 1817.93 1578.5 1695.67 1578.66L1367.17 1578.68C1334.39 1578.68 1301.14 1577.46 1268.42 1578.7ZM581.905 672.309V907.997H810.616C812.003 860.02 810.594 811.611 810.608 763.597L810.727 704.803C810.785 694.087 811.487 682.974 810.616 672.309C734.422 672.29 658.083 671.232 581.905 672.309ZM581.905 2323.72V2558.58H810.616V2323.72C734.432 2324.68 658.104 2323.72 581.905 2323.72ZM2224.03 672.309C2222.85 750.809 2224.06 829.471 2224.03 907.997L2376.46 908.027C2400.72 908.039 2425.95 909.688 2450.04 907.997C2451.3 904.992 2450.04 695.691 2450.04 672.309H2224.03ZM1505.79 1259.45C1448.62 1267.32 1407.12 1317.59 1415.09 1375.57C1421.96 1425.57 1475.71 1475.21 1528.35 1460.96C1613.93 1458.42 1649.33 1343.87 1587.66 1286.76C1567.14 1267.76 1533.93 1255.5 1505.79 1259.45Z" fill="url(#paint1_linear_11_63)"/>
<path d="M1510.95 1725.19C1575.91 1709.16 1615.66 1830.84 1523.04 1845.47C1443.3 1852.38 1429.31 1736.09 1510.95 1725.19Z" fill="url(#paint2_linear_11_63)"/>
<defs>
<linearGradient id="paint0_linear_11_63" x1="2335.44" y1="2202.65" x2="2335.44" y2="2675.23" gradientUnits="userSpaceOnUse">
<stop stop-color="#1CCA82"/>
<stop offset="1" stop-color="#19EEE3"/>
</linearGradient>
<linearGradient id="paint1_linear_11_63" x1="1516" y1="553.811" x2="1516" y2="2675.94" gradientUnits="userSpaceOnUse">
<stop stop-color="#1CCA82"/>
<stop offset="1" stop-color="#19EEE3"/>
</linearGradient>
<linearGradient id="paint2_linear_11_63" x1="1516.86" y1="1723.74" x2="1516.86" y2="1845.76" gradientUnits="userSpaceOnUse">
<stop stop-color="#1CCA82"/>
<stop offset="1" stop-color="#19EEE3"/>
</linearGradient>
</defs>
</svg>
