<svg width="3033" height="3231" viewBox="0 0 3033 3231" fill="none" xmlns="http://www.w3.org/2000/svg">
<path d="M50 904.881L864.178 50H2983V2347.5L2217.87 3181H50V904.881Z" stroke="#1CCA82" stroke-width="100"/>
<path d="M571.571 555.797C606.549 552.931 643.433 555.767 678.615 555.781L2009.72 555.75C2026.67 555.751 2044.74 554.485 2061.51 556.473C2112.87 562.558 2158.77 615.533 2171.87 663.118C2181.26 697.282 2178.33 734.381 2178.32 769.513L2178.27 867.99C2198.77 880.023 2217.37 895.835 2237.32 908.861C2310.98 956.962 2396.22 996.029 2484.16 1008.24C2564.9 1019.45 2576.4 1016.16 2576.26 1108.52L2576.23 1297.04C2576.3 1393.35 2560.88 1452.36 2509.3 1538.08C2431.03 1668.17 2304.05 1732.08 2175.76 1801.62C2175.28 1864.22 2184.79 1913.95 2139.36 1965.35C2088.45 2022.94 2041.56 2009.1 1977.45 2012.9C1983.37 2026.24 1991.22 2039.02 1998.42 2051.7L2143.34 2308.24C2168.38 2351.64 2200.16 2394.37 2212.43 2443.48C2231.16 2540.08 2173.98 2643.71 2077.47 2671.06C2051.19 2678.51 2014.49 2675.23 1986.94 2675.21L1263.34 2675.22C1205.72 2675.25 1159.35 2683.3 1107.22 2653.51C1031.68 2610.33 986.496 2517.42 1013.33 2432.16C1024.51 2396.68 1053.72 2355.36 1072.51 2322.36C1131.66 2218.48 1194.12 2116.54 1253.67 2012.9L661.592 2012.97C636.527 2013.02 610.146 2014.89 585.3 2011.87C525.134 2004.55 468.994 1955.17 458.631 1894.71C455.445 1876.12 456.774 1856.02 456.804 1837.2L456.831 765.124C456.821 737.107 455.199 708.101 457.297 680.246C461.643 622.533 514.968 565.183 571.571 555.797ZM598.622 675.06C584.1 681.106 577.279 690.334 576.921 705.721C575.698 758.298 577.171 811.251 577.163 863.885L577.179 1632.4C577.18 1702.28 576.105 1772.32 577.144 1842.18C578.188 1912.45 640.421 1891.42 697.845 1891.41H1328.53C1333.97 1878.36 1341.78 1866.01 1348.84 1853.77L1436.09 1702.12C1448.02 1681.52 1458.56 1659.62 1474.3 1641.56C1526.5 1581.64 1613.9 1559.83 1687.61 1591.19C1757.22 1620.79 1775.8 1663.88 1810.74 1726.19C1839.62 1777.7 1873.96 1842.38 1906.32 1891.41L1988.84 1891.5C2014.69 1891.54 2035.35 1897.53 2053.09 1875.23C2055.76 1857.63 2054.68 1839.74 2053.09 1822.08C2053.56 1815.12 2053.79 1808.57 2053.09 1801.62L2051.58 1800.4C2036.82 1788.6 2017.64 1781.08 2000.92 1772.29C1770.84 1651.24 1648.75 1520.52 1648.94 1254.96L1648.67 1111.5C1647.36 1006.78 1679.83 1020.97 1765.02 1005.65C1884 984.259 1958.07 931.757 2053.09 867.99L2053.16 751.357C2053.19 662.928 2050.95 675.051 1969.17 675.038L598.622 675.06ZM1610.88 1698.87C1569.57 1704.59 1557.5 1733.38 1538.43 1765.79L1328.12 2129.45C1280.69 2212.44 1231.55 2294.43 1184.8 2377.82C1169.4 2405.27 1150.91 2432.04 1137.66 2460.51C1118.65 2501.38 1149.21 2549.49 1193.2 2554.63C1209.14 2556.48 1226.05 2555.4 1242.1 2555.38L1614.79 2555.32L1978.89 2555.37C2029.23 2555.41 2089.99 2553.01 2089.44 2481.87C2089.24 2455.02 2065.27 2424.71 2052.46 2402.22L1700.59 1785.03C1683.27 1755.4 1657.39 1687.77 1610.88 1698.87ZM2050.31 1017.11C1986.47 1057.3 1921.16 1090.57 1848.55 1112.06C1824.4 1119.2 1797.8 1122.75 1774.6 1130.15L1774.58 1248.48C1774.54 1365.15 1789.55 1454.46 1878.74 1542.98C1936.97 1600.76 2040.85 1653.25 2117.28 1690.2L2216.12 1634.86C2325.15 1574.03 2405.71 1516.16 2441.82 1385.67C2460.55 1318.02 2455.28 1247.1 2455.3 1177.65V1130.15C2352.26 1116.35 2265.29 1068.47 2178.27 1017.11C2176.79 1106.8 2178.3 1196.72 2178.27 1286.45L2218.24 1286.37C2243.96 1286.36 2268.64 1286.26 2288.14 1305.8C2313.58 1331.29 2310.53 1372.69 2284.68 1396.6C2265.47 1414.35 2243.99 1412.82 2219.79 1412.74L2178.27 1412.63C2178.98 1435.09 2181.07 1485.12 2175.2 1505.08C2155.35 1572.5 2052.73 1563.37 2052.82 1479.98L2053.09 1412.63C2020.6 1412.65 1971.49 1420.31 1947.5 1396.2C1923.28 1371.87 1921.43 1327.82 1946.67 1303.48C1970.96 1280.05 2021.4 1286.32 2053.09 1286.45C2053.1 1257.93 2055.18 1023.57 2051.35 1017.63L2050.31 1017.11Z" fill="url(#paint0_linear_11_98)"/>
<path d="M1610.88 2257.15C1687.24 2251.01 1685.41 2357.83 1674.69 2406.85C1668.93 2433.18 1646.65 2448.4 1620.84 2452.28C1587.58 2453.07 1558.64 2433.83 1553.52 2399.43C1545.46 2345.26 1540.42 2265.52 1610.88 2257.15Z" fill="url(#paint1_linear_11_98)"/>
<path d="M1610.88 1910.33C1676.36 1907.83 1677.21 1963.9 1677.32 2009.65L1677.4 2076.54C1677.42 2128.36 1691.54 2202.32 1620.84 2212.55C1534.23 2221.26 1552.43 2111.82 1552.37 2058.21L1552.29 2000.9C1552.27 1955.72 1556.79 1915.8 1610.88 1910.33Z" fill="url(#paint2_linear_11_98)"/>
<path d="M1041.07 1552.19C1076.22 1552.24 1140.02 1544.39 1164.84 1568.34C1189.26 1591.89 1190.17 1633.2 1166.25 1657.37C1146.84 1676.99 1127.45 1675.43 1101.88 1675.45L852.624 1675.41C829.747 1675.33 775.537 1678.48 755.994 1673.12C697.246 1657.02 693.416 1566.16 756.422 1554.49C783.171 1549.54 826.332 1552.17 854.262 1552.17L1041.07 1552.19Z" fill="url(#paint3_linear_11_98)"/>
<defs>
<linearGradient id="paint0_linear_11_98" x1="1516.24" y1="554.516" x2="1516.24" y2="2676.23" gradientUnits="userSpaceOnUse">
<stop stop-color="#1CCA82"/>
<stop offset="1" stop-color="#44E1DF"/>
</linearGradient>
<linearGradient id="paint1_linear_11_98" x1="1614.56" y1="2256.9" x2="1614.56" y2="2452.31" gradientUnits="userSpaceOnUse">
<stop stop-color="#1CCA82"/>
<stop offset="1" stop-color="#44E1DF"/>
</linearGradient>
<linearGradient id="paint2_linear_11_98" x1="1614.69" y1="1910.25" x2="1614.69" y2="2213.04" gradientUnits="userSpaceOnUse">
<stop stop-color="#1CCA82"/>
<stop offset="1" stop-color="#44E1DF"/>
</linearGradient>
<linearGradient id="paint3_linear_11_98" x1="947.111" y1="1551" x2="947.111" y2="1676.26" gradientUnits="userSpaceOnUse">
<stop stop-color="#1CCA82"/>
<stop offset="1" stop-color="#44E1DF"/>
</linearGradient>
</defs>
</svg>
