<svg width="3033" height="3231" viewBox="0 0 3033 3231" fill="none" xmlns="http://www.w3.org/2000/svg">
<path d="M50 904.881L864.178 50H2983V2347.5L2217.87 3181H50V904.881Z" stroke="#1CCA82" stroke-width="100"/>
<path d="M953.802 1523.53L1051.04 1523.52C1086.37 1523.51 1122.94 1517.63 1150.58 1544.63C1175.79 1569.25 1176.04 1614.31 1151.31 1639.4C1124.88 1666.21 1091.82 1660.25 1057.58 1660.21L953.802 1660.19L850.65 1660.12C831.648 1660.22 809.157 1662.93 790.612 1659.05C739.669 1648.39 720.334 1580.79 756.336 1544.28C782.628 1517.62 820.699 1523.48 854.69 1523.49L953.802 1523.53Z" fill="url(#paint0_linear_1_32)"/>
<path d="M810.115 1234.94L1268.34 1234.92C1302.37 1234.92 1338.02 1228.91 1364.55 1254.69C1412.24 1301.04 1376.82 1374.69 1310.95 1374.7L854.87 1374.7C835.481 1374.75 814.727 1376.27 795.495 1373.8C717.781 1363.83 710.903 1242.37 810.115 1234.94Z" fill="url(#paint1_linear_1_32)"/>
<path d="M594.932 558.438C609.894 557.663 625.19 558.362 640.186 558.382L1849.56 558.302C1894.48 558.167 1930.04 565.767 1962.83 598.663C2010.7 646.684 2003.29 704.351 2003.29 766.943L2003.24 902.734C2041.85 902.136 2080.57 902.713 2119.19 902.717L2456.25 902.761C2490.01 902.772 2527.67 896.523 2554.5 921.732C2581.72 947.305 2582.78 994.191 2557.01 1021.15C2531.69 1047.62 2496.42 1043.18 2463.24 1043.12L2126.3 1043.04C2085.33 1043.04 2044.18 1042.12 2003.24 1043.04L2003.3 1144.89C2003.3 1167.22 2006.03 1195.11 2000.51 1216.46C1982.49 1286.1 1877.5 1279.78 1866.38 1208.75C1863.31 1189.13 1864.77 1167.37 1864.78 1147.52L1864.83 696.651H876.803C784.121 696.656 691.322 695.619 598.653 696.651C599.526 714.527 598.744 732.707 598.713 750.62L598.653 2189.5L993.237 2189.43C1023.52 2189.43 1055.51 2185.05 1080.99 2204.93C1127.84 2241.48 1105.45 2322.89 1046.3 2327.87C1017.2 2330.32 986.61 2328.55 957.385 2328.54L648.997 2328.59C619.558 2328.64 588.039 2330.9 558.999 2325.84C444.659 2305.91 457.986 2193.35 457.94 2109.98L457.913 749.838C457.86 727.654 456.209 704.108 458.783 682.082C466.725 614.111 527.969 561.898 594.932 558.438Z" fill="url(#paint2_linear_1_32)"/>
<path d="M2218.32 1342.63C2220.65 1342.49 2222.96 1342.41 2225.29 1342.39L2330.09 1342.6C2405.87 1342.57 2461.82 1337.93 2520.93 1396.66C2557.93 1433.42 2573.94 1481.11 2574.1 1532.53L2574.11 2407.9C2574.12 2443.03 2577.06 2485.63 2571.12 2519.69C2558.15 2594.05 2496.56 2656.63 2422.26 2670.31C2391.83 2675.92 2357.82 2673.08 2326.89 2673.06L1594.82 2673.07L1491 2673.13C1459.81 2673.13 1426.64 2675.45 1396.14 2668.3C1284.95 2642.23 1249.18 2553.78 1249.31 2452.12L1249.18 2177.51C1249.04 2078.52 1295.59 1993.13 1398.34 1968.02C1432.82 1959.59 1472.29 1962.94 1507.71 1962.93L1645.84 1962.95L1646.19 1826.28C1646.57 1793.91 1643.99 1761.03 1651.95 1729.31C1671.07 1653.27 1731.02 1595.82 1808.23 1582.3C1853.9 1574.31 2001.87 1578.84 2043.2 1589.38C2043.24 1563.98 2041.11 1531.37 2043.02 1507.1C2050.26 1415.11 2127.95 1347.94 2218.32 1342.63ZM2232.94 1479.8C2182.9 1480.47 2181.84 1519.32 2181.85 1557.65L2181.95 2531.16H2379.33C2436.54 2531.86 2434.48 2486.12 2434.33 2442.04L2434.28 1730.55C2434.28 1663.77 2435.92 1596.58 2434.31 1529.84C2432.86 1469.31 2378.24 1479.61 2337.82 1479.74C2302.89 1479.86 2267.85 1479.07 2232.94 1479.8ZM1843.55 1719.67C1775.58 1725.58 1783.41 1770.93 1783.46 1824.46L1783.58 2465.62C1783.67 2487.31 1785.5 2509.57 1783.53 2531.16H1985.86C2005.02 2531.92 2024.06 2532.41 2043.2 2531.16L2043.2 1848.11C2043.33 1732.92 2051.9 1719.67 1939.53 1719.65L1843.55 1719.67ZM1438 2104.5C1373.99 2113.86 1386.15 2184.67 1386.14 2231.74L1386.07 2448.15C1385.89 2530.85 1400.55 2531.28 1486.57 2531.25L1594.82 2531.16H1645.84L1645.92 2185.92C1646.24 2094.48 1624.95 2104.37 1536.36 2104.43C1503.98 2104.46 1470.2 2101.64 1438 2104.5Z" fill="url(#paint3_linear_1_32)"/>
<defs>
<linearGradient id="paint0_linear_1_32" x1="953.763" y1="1522.94" x2="953.763" y2="1661.13" gradientUnits="userSpaceOnUse">
<stop stop-color="#6AE184"/>
<stop offset="1" stop-color="#38E5DC"/>
</linearGradient>
<linearGradient id="paint1_linear_1_32" x1="1061.47" y1="1234.31" x2="1061.47" y2="1375.21" gradientUnits="userSpaceOnUse">
<stop stop-color="#6AE184"/>
<stop offset="1" stop-color="#38E5DC"/>
</linearGradient>
<linearGradient id="paint2_linear_1_32" x1="1516.5" y1="558.073" x2="1516.5" y2="2329.17" gradientUnits="userSpaceOnUse">
<stop stop-color="#6AE184"/>
<stop offset="1" stop-color="#38E5DC"/>
</linearGradient>
<linearGradient id="paint3_linear_1_32" x1="1912.01" y1="1342.39" x2="1912.01" y2="2673.8" gradientUnits="userSpaceOnUse">
<stop stop-color="#6AE184"/>
<stop offset="1" stop-color="#38E5DC"/>
</linearGradient>
</defs>
</svg>
