<svg width="3033" height="3231" viewBox="0 0 3033 3231" fill="none" xmlns="http://www.w3.org/2000/svg">
<path d="M50 904.881L864.178 50H2983V2347.5L2217.87 3181H50V904.881Z" stroke="#1CCA82" stroke-width="100"/>
<path d="M2361.25 1063.04C2494.11 1061.2 2599.14 1186.2 2562.23 1318.45C2530.99 1430.38 2414.79 1489.1 2305 1457.47C2290.73 1470.49 2277.42 1484.56 2263.68 1498.13L2174.44 1587.15C2102.21 1659.55 2029.68 1731.75 1958.82 1805.49C2046.26 1964.63 1886.96 2152.2 1713.52 2086.7C1602.22 2044.67 1557.55 1924.89 1599.29 1816.72C1533.23 1748.32 1465.08 1681.1 1396.66 1615.07C1331.9 1643.7 1307.6 1634.41 1246.43 1624.73L1245.25 1624.55L911.318 1960.33C891.844 1980.04 873.102 2004.37 843.62 2007.63C804.9 2011.9 767.647 1985.43 763.721 1945.79C759.986 1908.09 782.32 1890.69 806.608 1866.36L1058.23 1612.86C1084.42 1586.08 1113.39 1560.86 1137.27 1532L1134.21 1525.69C1085.94 1425.31 1125.92 1301.63 1227.87 1253.8C1391.22 1177.18 1559.91 1340.08 1496.04 1510.98C1559.88 1580.75 1629.65 1645.95 1696.4 1712.9C1739.88 1694.5 1816.95 1684.43 1855.84 1712.9C1866.64 1699.01 1879.54 1686.79 1891.97 1674.38L1955.14 1612.48C2032.99 1534.96 2123.4 1448.4 2196.29 1366.82C2120.24 1231.17 2208.04 1071.75 2361.25 1063.04ZM1303.62 1374.93C1222.01 1392.78 1242.24 1506.45 1323.23 1494.39C1399.78 1478.17 1382.39 1366.57 1303.62 1374.93ZM2361.25 1205.98C2280.53 1224.12 2296.65 1325.34 2374.34 1324.29C2453.09 1309.3 2437.72 1198.95 2361.25 1205.98ZM1773.38 1840.68C1710.03 1854.22 1693.35 1951.42 1791.13 1960.33C1866.53 1938.43 1853.07 1836.8 1773.38 1840.68Z" fill="url(#paint0_linear_11_19)"/>
<path d="M527.017 688.655C563.593 684.216 600.795 714.016 605.272 750.522C607.363 767.57 606.171 785.892 606.176 803.084L606.313 2108.84C606.566 2199.29 604.981 2289.84 606.147 2380.28C624.807 2381.41 644.024 2380.19 662.762 2380.21L2296.68 2380.28L2296.64 1897.46C2296.61 1862.61 2290.57 1823.74 2316.99 1796.35C2344.02 1768.33 2391.44 1769.47 2418.64 1796.78C2439.59 1817.81 2438.5 1844.85 2438.51 1872.26L2438.46 2117.22V2380.28C2473.64 2383.43 2516.17 2371.73 2546.92 2394.1C2598.11 2431.32 2579.31 2513.18 2514.81 2522.17C2473.73 2527.89 2377.34 2521.67 2331.78 2521.67L685.754 2521.69C636.075 2521.7 585.957 2523.23 536.331 2521.58C454.571 2518.86 462.635 2444.4 462.661 2385L462.691 870.469C462.686 806.381 440.23 698.19 527.017 688.655Z" fill="url(#paint1_linear_11_19)"/>
<defs>
<linearGradient id="paint0_linear_11_19" x1="1666.51" y1="1063.02" x2="1666.51" y2="2100.1" gradientUnits="userSpaceOnUse">
<stop stop-color="#1CCA82"/>
<stop offset="1" stop-color="#29EED0"/>
</linearGradient>
<linearGradient id="paint1_linear_11_19" x1="1518.2" y1="688.216" x2="1518.2" y2="2524.59" gradientUnits="userSpaceOnUse">
<stop stop-color="#1CCA82"/>
<stop offset="1" stop-color="#29EED0"/>
</linearGradient>
</defs>
</svg>
