<svg width="3033" height="3231" viewBox="0 0 3033 3231" fill="none" xmlns="http://www.w3.org/2000/svg">
<path d="M50 904.881L864.178 50H2983V2347.5L2217.87 3181H50V904.881Z" stroke="#1CCA82" stroke-width="100"/>
<path d="M661.215 650.411C703.411 648.234 746.321 650.401 788.595 650.404L2315.11 650.385C2338.55 650.387 2362.81 649.099 2386.07 652.218C2475.01 664.151 2575.73 747.625 2576.23 842.759L2576.25 2004.92C2576.29 2018.88 2577.32 2033.75 2574.94 2047.51C2560.88 2128.65 2480.48 2201.05 2402.42 2219.35C2368.57 2227.3 2333.65 2225.86 2299.14 2225.88L1878.66 2225.79V2444.31C1920.15 2442.8 1962.22 2444.28 2003.76 2444.31L2038.2 2444.18C2165.98 2442.68 2134.19 2564.02 2065.75 2567.14C2040.66 2568.29 2015.13 2567.4 1990.01 2567.4L1018.1 2567.48C1001.74 2567.49 984.629 2568.49 968.36 2567.06C900.12 2561.03 890.721 2461.76 957.473 2446.63C979.369 2441.68 1007.57 2444.27 1030.32 2444.26L1153.14 2444.31V2225.79L720.314 2225.83C650.946 2225.87 594.789 2222.24 536.338 2178.1C461.371 2121.49 456.708 2064.52 456.842 1982.06L456.854 892.212C456.859 824.335 454.886 792.4 500.667 734.121C541.03 682.738 597.716 658.254 661.215 650.411ZM753.276 773.468L700.725 773.398C607.49 773.432 576.189 801.272 576.482 895.444L576.586 1987.69C577.066 2096.21 651.845 2103.26 738.765 2103.26L2277.09 2103.22C2323.26 2105.31 2383.61 2108.89 2419.43 2076.39C2465.96 2034.18 2455.39 1968.4 2455.34 1911.86V908.492C2455.34 838.909 2447.27 776.719 2361.69 773.747C2301.08 771.643 2239.86 773.468 2179.18 773.468H753.276ZM1368.08 2225.79H1277.85C1276.53 2249.34 1277.82 2273.24 1277.87 2296.84L1277.85 2444.31H1661.53C1692.35 2444.27 1723.24 2443.78 1754.05 2444.31L1754.03 2296.47C1754.01 2272.94 1753.44 2249.3 1754.05 2225.79C1625.48 2227.31 1496.68 2225.78 1368.08 2225.79Z" fill="url(#paint0_linear_11_58)"/>
<path d="M1641.48 912.504C1671.36 909.289 1702.21 936.277 1706.46 965.097C1714.21 1017.62 1706.98 1086.2 1674.96 1128.99C1746.15 1172.21 1789.32 1209.68 1830.59 1282.68L1908.64 1204.53C1922.48 1190.8 1936.75 1173.52 1953.32 1163.19C2008.1 1129.06 2070.31 1196.89 2037.23 1250.59C2023.59 1272.73 1948.6 1342.79 1926.47 1364.21C1907.03 1383.02 1886.46 1400.78 1868.67 1421.21C1868.5 1437.26 1868.65 1453.32 1868.67 1469.37L2012.7 1469.34C2036.48 1469.34 2068.05 1466.74 2090.7 1471.46C2151.9 1484.21 2159.36 1580.74 2087.08 1593.94C2064.88 1597.99 2035.51 1595.57 2012.64 1595.57L1868.67 1595.51V1656.75C1881.16 1670.37 1895.16 1682.77 1908.34 1695.75L1998.24 1784.51C2011.88 1798.14 2029.25 1812.18 2039.94 1828.13C2076.89 1883.27 2008.94 1945.07 1952.53 1910.63C1927.65 1895.43 1853.04 1813.66 1825.38 1787.98C1704.85 1978.94 1473.1 2023.54 1293.34 1886.58C1259.33 1859.87 1229.1 1825.67 1207.73 1787.98C1178.45 1815.89 1105.37 1897.74 1076.01 1915.37C1023.03 1947.19 958.318 1881.52 992.514 1829.6C1005.27 1810.23 1024.91 1793 1041.42 1776.77L1113.62 1706.68C1130.3 1690.51 1145.31 1672.64 1162.25 1656.75C1162.93 1636.4 1162.31 1615.88 1162.25 1595.51L965.58 1595.65C880.907 1595.17 874.473 1485.2 944.572 1471.32C978.704 1464.56 1122.06 1467.67 1162.25 1469.37C1162.05 1453.32 1162.21 1437.26 1162.25 1421.21C1152.12 1404.13 1127.99 1384.78 1113.32 1370.32L1044.46 1301.52C1030.29 1287.45 1015.47 1273.75 1001.8 1259.22C952.582 1206.93 1018.98 1125.61 1078.7 1164.72C1101.95 1179.96 1180.72 1262.94 1201.45 1286.25C1239.56 1209.41 1287.88 1170.48 1358.54 1128.99C1329.47 1089.59 1309.59 978.086 1339.88 937.529C1360.61 909.776 1400.39 905.851 1427.6 926.385C1466.09 955.442 1448.41 1000.17 1454.15 1040.44C1461.19 1089.9 1522.24 1107.21 1558.57 1077.62C1611.79 1034.25 1538.43 927.986 1641.48 912.504ZM1506.17 1217.64C1393.1 1223.84 1297.08 1315.46 1286.1 1428.12C1281.11 1479.44 1282.47 1577.53 1285.33 1630.15C1291.97 1752.01 1404.71 1845.19 1524.01 1842.16C1607.3 1838.17 1679.54 1792.63 1718.99 1719.96C1753.25 1656.86 1748.07 1511.78 1744.41 1434.3C1738.65 1312.22 1628.47 1211.33 1506.17 1217.64Z" fill="url(#paint1_linear_11_58)"/>
<defs>
<linearGradient id="paint0_linear_11_58" x1="1516.67" y1="649.441" x2="1516.67" y2="2567.83" gradientUnits="userSpaceOnUse">
<stop stop-color="#1CCA82"/>
<stop offset="1" stop-color="#1EE8D0"/>
</linearGradient>
<linearGradient id="paint1_linear_11_58" x1="1517.77" y1="912.243" x2="1517.77" y2="1966.06" gradientUnits="userSpaceOnUse">
<stop stop-color="#1CCA82"/>
<stop offset="1" stop-color="#1EE8D0"/>
</linearGradient>
</defs>
</svg>
