<svg width="3033" height="3231" viewBox="0 0 3033 3231" fill="none" xmlns="http://www.w3.org/2000/svg">
<path d="M50 904.881L864.178 50H2983V2347.5L2217.87 3181H50V904.881Z" stroke="#1CCA82" stroke-width="100"/>
<path d="M1439.78 1604.32C1469.76 1602.04 1574.15 1601.47 1598.84 1605.88C1672.43 1619.04 1667.8 1727.64 1594.32 1737.18C1576.37 1739.09 1548.51 1737.24 1529.33 1737.19L1478.36 1737.21C1452.93 1737.38 1427.61 1739.29 1406.15 1722.97C1357.97 1686.33 1382.56 1611.68 1439.78 1604.32Z" fill="url(#paint0_linear_11_46)"/>
<path d="M2083.46 1604.32C2094.25 1603.52 2105.46 1604.19 2116.29 1604.23L2178.24 1604.4C2201.67 1604.42 2232.76 1601.8 2255.32 1604.96C2328.17 1615.16 2336.43 1720.7 2250.49 1737.18C2236.95 1736.3 2222.94 1737.09 2209.34 1737.12L2129.7 1737.23C2110.84 1737.24 2089.8 1738.07 2071.36 1734.03C2003.09 1719.05 2007.4 1613.38 2083.46 1604.32Z" fill="url(#paint1_linear_11_46)"/>
<path d="M782.267 1604.32C821.738 1603.89 921.158 1599.27 956.926 1606.12C1030.64 1620.23 1025.95 1731.07 946.552 1737.18L832.566 1737.17C812.988 1737.17 791.741 1739.05 772.465 1735.88C697.823 1723.56 700.847 1615.09 782.267 1604.32Z" fill="url(#paint2_linear_11_46)"/>
<path d="M1374.99 875.421C1401.92 874.057 1429.58 875.407 1456.6 875.407L1619.6 875.41C1649.25 875.468 1678.89 875.911 1708.2 880.748C1890.1 910.765 2031.1 1073.45 2048.64 1254.43C2051.02 1279.02 2050.58 1303.83 2050.52 1328.51L2342.16 1328.23C2410.29 1327.69 2466.28 1343.71 2515.91 1392.96C2578.22 1454.8 2576.23 1494.53 2576.16 1572.5L2576.26 2257.78C2576.27 2324.03 2560.49 2341.66 2490.73 2341.32L1896.44 2341.16C1837.02 2341.16 1777.37 2342.32 1717.98 2341.18C1651.46 2339.89 1651.28 2286.59 1652.06 2236.23C1652.41 2212.87 1652.09 2189.47 1652.08 2166.11L1652.12 2017.68C1651.98 1917.86 1638.16 1880.01 1750.62 1880L2400.31 1880.04C2415.96 1880.02 2431.85 1879.2 2447.46 1880.05C2448.77 1845.86 2447.49 1811.1 2447.48 1776.85L2447.56 1577.12C2447.65 1463.19 2394.15 1459.86 2296.78 1459.88L1665.26 1459.91L704.895 1459.83C612.049 1459.63 585.979 1490.71 586.071 1580.98L586.125 1880.05C641.413 1879.28 696.826 1880.04 752.128 1880.04L1244.02 1880.11C1298.03 1880.09 1377.86 1866.21 1379.81 1945.52C1380.43 1970.63 1379.78 1995.89 1379.79 2021.02L1379.86 2249.58C1379.86 2311.27 1373.73 2342.04 1297.42 2341.3L521.012 2341.74C445.43 2342.49 456.814 2270.23 456.839 2221.95L456.766 1529.07C456.691 1434.63 531.912 1356.72 621.578 1334.95C664.521 1324.53 735.626 1328.46 782.152 1328.49L987.733 1328.51C987.867 1302.21 986.665 1275.98 988.809 1249.71C1006.1 1038.24 1168.56 891.39 1374.99 875.421ZM1369.19 1009.88C1284.37 1023.83 1222.06 1050.79 1169.4 1124.7C1119.74 1194.38 1117.97 1247.31 1118.07 1328.51H1665.26H1916.53C1916.47 1206.68 1889.17 1113.25 1774.31 1045.66C1720.04 1013.73 1678.44 1009.8 1617.38 1009.83L1542.68 1009.88C1488.76 1009.93 1421.36 1005.73 1369.19 1009.88ZM1790.33 2011.3C1776.45 2013.69 1783.36 2069.24 1783.39 2085.47L1783.43 2210.65C1805.5 2212.41 1828.65 2210.66 1850.87 2210.65L2441.06 2210.65C2454.85 2209.28 2447.44 2161.69 2447.44 2147.09L2447.46 2011.3C2400.85 2011.93 2354.14 2011.29 2307.52 2011.29L1870.11 2011.3C1843.55 2011.31 1816.84 2012.73 1790.33 2011.3ZM597.294 2011.3C576.396 2012.57 586.121 2055.06 586.107 2076.61L586.125 2207.37H1243.43C1245.74 2207.39 1248.22 2207.97 1250.14 2206.65C1253.25 2148.47 1252.88 2069.73 1250.55 2011.3C1237.1 2010.05 1223.69 2010.83 1210.21 2010.98L597.294 2011.3Z" fill="url(#paint3_linear_11_46)"/>
<defs>
<linearGradient id="paint0_linear_11_46" x1="1516.15" y1="1602.58" x2="1516.15" y2="1738.04" gradientUnits="userSpaceOnUse">
<stop stop-color="#1CCA82"/>
<stop offset="1" stop-color="#1DCDD3"/>
</linearGradient>
<linearGradient id="paint1_linear_11_46" x1="2167.78" y1="1603.4" x2="2167.78" y2="1737.31" gradientUnits="userSpaceOnUse">
<stop stop-color="#1CCA82"/>
<stop offset="1" stop-color="#1DCDD3"/>
</linearGradient>
<linearGradient id="paint2_linear_11_46" x1="864.019" y1="1602.4" x2="864.019" y2="1737.72" gradientUnits="userSpaceOnUse">
<stop stop-color="#1CCA82"/>
<stop offset="1" stop-color="#1DCDD3"/>
</linearGradient>
<linearGradient id="paint3_linear_11_46" x1="1516.24" y1="874.811" x2="1516.24" y2="2341.75" gradientUnits="userSpaceOnUse">
<stop stop-color="#1CCA82"/>
<stop offset="1" stop-color="#1DCDD3"/>
</linearGradient>
</defs>
</svg>
