<svg width="3033" height="3231" viewBox="0 0 3033 3231" fill="none" xmlns="http://www.w3.org/2000/svg">
<path d="M50 904.881L864.178 50H2983V2347.5L2217.87 3181H50V904.881Z" stroke="#1CCA82" stroke-width="100"/>
<path d="M624.146 634.067L625.653 634.003C666.249 632.42 707.591 634.058 748.269 634.06L2347.26 634.048C2371.31 634.034 2396.54 632.266 2420.4 635.065C2488.28 643.033 2573.99 704.885 2576.13 779.029C2577.04 811.004 2576.23 843.261 2576.22 875.262L2576.25 1986.28C2576.28 2002.45 2577.4 2019.42 2575.04 2035.42C2565.33 2101.19 2502.49 2159.31 2438.8 2172C2412.25 2177.29 2384.46 2175.42 2357.5 2175.4L1929.07 2175.31C1876.94 2175.33 1824.56 2174.17 1772.48 2175.34C1771.11 2209.62 1772.46 2244.5 1772.47 2278.86L1772.48 2469.63H1873.41L1977.33 2469.67C1995.84 2469.62 2016.75 2467.35 2034.89 2470.85C2080.07 2479.56 2098.08 2535.97 2067.54 2569.58C2042.93 2596.66 1990.24 2587.92 1957.13 2587.91L1049.81 2587.97C1033.83 2587.98 1017.37 2588.74 1001.46 2587.21C935.455 2580.88 927.108 2482.47 993.586 2470.88C1013.5 2467.41 1055.98 2469.61 1077.67 2469.61L1258.95 2469.63C1257.72 2452.91 1258.45 2436.28 1258.7 2419.54C1259.93 2338.14 1257.19 2256.72 1258.95 2175.34L681.459 2175.36C655.928 2175.39 628.777 2177.48 603.55 2173.54C533.92 2162.65 462.574 2098.05 457.251 2025.73C455.217 1998.09 456.825 1969.25 456.858 1941.5L456.876 824.402C456.88 768.409 454.408 742.967 495.055 696.51C528.061 658.786 574.467 637.381 624.146 634.067ZM627.905 750.3C560.355 761.453 571.285 824.557 571.407 875.373L571.436 1754.25C571.485 1762.87 572.28 1771.99 571.407 1780.55L2168.65 1780.56C2202.2 1780.55 2250.46 1772.85 2276.58 1798.97C2300.53 1822.92 2301.47 1860.69 2276.78 1884.55C2251.85 1908.65 2207.4 1901.18 2175.76 1901.18L571.407 1901.14C571.222 1998.5 555.024 2061.87 677.324 2056.08L2343.16 2056.13C2439.1 2056.15 2460.33 2059.9 2460.52 1944.5L2460.53 818.593C2460.05 734.712 2379.83 750.232 2322.16 750.262L748.018 750.312C711.296 750.302 663.216 746.856 627.905 750.3ZM1377.73 2175.34C1376.47 2208.15 1377.76 2241.58 1377.75 2274.45L1377.73 2469.63H1654.9V2175.34C1562.56 2174.28 1470.08 2175.35 1377.73 2175.34Z" fill="url(#paint0_linear_1_61)"/>
<path d="M1493.15 935.318C1588.08 925.569 1693.68 972.783 1756.42 1042.84C1764.28 1051.62 1771.49 1061.38 1780.72 1068.79L1782.08 1069.85C1795.16 1071.76 1807.8 1069.86 1820.89 1069.84L1918.74 1069.81C2023.07 1069.82 2009.67 1063.28 2083.28 1136.19L2133.6 1186.05C2153.37 1205.66 2175.31 1222.98 2178.74 1252.4C2184.16 1298.82 2122.81 1341.83 2092.74 1372.45C2075.48 1390.03 2045.26 1425.49 2024 1436.56C1986.68 1455.98 1838.96 1436.61 1782.08 1444.13C1704.6 1531.78 1661.78 1569.37 1535.52 1584.48C1426.27 1582.43 1315.4 1541.55 1255.31 1444.13L1103.46 1444.15C988.334 1444.24 1012.27 1440.66 935.749 1365.52L885.406 1316.29C853.044 1284.02 831.946 1253.64 870.365 1214.82L956.165 1129.39C1027.87 1058.81 1013.11 1069.72 1107.36 1069.82L1255.31 1069.85C1297.87 992.371 1409.2 945.096 1493.15 935.318ZM1500.47 1056.22C1355.77 1073.32 1348.75 1184.71 1294.84 1191.07C1270.42 1193.95 1240.43 1191.89 1215.53 1191.89L1061.2 1191.82C1038.06 1213.89 1017 1238.29 993.321 1259.73C1010.43 1278.66 1041.39 1312.52 1061.2 1326.21L1220.22 1326.25C1259.25 1326.23 1303.71 1315.56 1330.69 1350.64C1339.78 1364.16 1348.58 1377.97 1359.08 1390.46C1471.28 1523.89 1685.96 1464.8 1716.7 1296.68C1736.79 1186.81 1660.52 1078.31 1550.65 1059.06C1536.64 1056.61 1514.45 1053.84 1500.47 1056.22ZM1834.5 1191.82C1841.86 1244.62 1843.99 1273.27 1834.5 1326.21L1925.99 1326.16C1940.49 1326.11 1956.64 1324.23 1970.94 1326.21C1981.95 1316.59 1992.42 1306.13 2002.71 1295.73C2014.81 1283.67 2026.73 1271.35 2039.25 1259.73C2018.04 1238.23 1994.33 1210.27 1970.94 1191.82L1879.01 1191.75C1863.95 1191.66 1849.54 1189.79 1834.5 1191.82Z" fill="url(#paint1_linear_1_61)"/>
<ellipse cx="1517" cy="1259" rx="120" ry="110" fill="url(#paint2_linear_1_61)"/>
<defs>
<linearGradient id="paint0_linear_1_61" x1="1516.39" y1="633.314" x2="1516.39" y2="2589.26" gradientUnits="userSpaceOnUse">
<stop stop-color="#1CCA82"/>
<stop offset="1" stop-color="#14FFEB"/>
</linearGradient>
<linearGradient id="paint1_linear_1_61" x1="1514.39" y1="934.045" x2="1514.39" y2="1584.48" gradientUnits="userSpaceOnUse">
<stop stop-color="#1CCA82"/>
<stop offset="1" stop-color="#14FFEB"/>
</linearGradient>
<linearGradient id="paint2_linear_1_61" x1="1517" y1="1149" x2="1517" y2="1369" gradientUnits="userSpaceOnUse">
<stop stop-color="#1CCA82"/>
<stop offset="1" stop-color="#14FFEB"/>
</linearGradient>
</defs>
</svg>
