<svg width="3033" height="3231" viewBox="0 0 3033 3231" fill="none" xmlns="http://www.w3.org/2000/svg">
<path d="M50 904.881L864.178 50H2983V2347.5L2217.87 3181H50V904.881Z" stroke="#1CCA82" stroke-width="100"/>
<path d="M1506 558.466C1865.51 548.023 2168.78 840.639 2189.87 1196.03C2202.58 1197.4 2215.36 1198.2 2228.05 1199.85C2350.97 1215.86 2439.81 1333.36 2423.13 1456.14C2408.54 1563.45 2300.61 1664.52 2189.87 1649.02C2189.32 1678.68 2188.86 1714.71 2151.38 1721.96C2113.9 1729.22 1963.34 1725.05 1921.14 1723.59C1866.32 1783.11 1815.43 1824.51 1741.96 1859.93C1788.67 1858.87 1854.51 1856.92 1900.18 1861.38C2128.51 1883.65 2306.82 2077.5 2312.13 2306.86C2314.19 2395.78 2311.02 2484.72 2312.63 2573.63C2313.18 2603.76 2317.39 2631.12 2294.73 2654.53C2267.26 2682.92 2183.4 2672.2 2144.45 2672.18L836.18 2672.23C772.101 2672.38 722.346 2679.77 722.092 2598.33L722.151 2401.69C722.163 2357.34 719.781 2311.31 724.094 2267.16C744.888 2054.26 921.729 1878.61 1135.26 1861.25C1155.07 1859.64 1175.35 1860.01 1195.23 1859.95L1286.9 1859.93C1128.58 1772.43 1056.06 1675.21 1012.62 1505.71C930.846 1079.76 1366.6 736.162 1746.32 932.605C1968.86 1047.73 2076.68 1300.63 2012.8 1540.56C2007.12 1561.87 2000.92 1585.77 1990.74 1605.37H2075.88C2076.93 1588.87 2075.91 1571.98 2075.89 1555.43L2075.88 1458.23C2075.81 1373.95 2076.99 1289.54 2075.83 1205.28C2072.21 942.306 1853.27 715.444 1597.66 677.531C1296.38 632.843 989.136 862.419 960.344 1168.91C957.922 1194.71 958.246 1220.49 958.233 1246.37L958.216 1336.38C958.212 1422.4 957.413 1508.52 958.654 1594.53C959.671 1665 883.505 1649.81 830.766 1648.93C704.904 1646.82 609.204 1541.32 612.193 1416.8C615.202 1291.4 720.052 1193.39 844.902 1196.03C848.131 849.004 1165.93 567.526 1506 558.466ZM1160.89 1975.03C987.164 1979.85 850.746 2125.33 837.594 2294.84C834.919 2329.31 835.991 2364.13 835.989 2398.7C835.985 2450.9 833.455 2503.88 836.001 2555.99H2001.35C2067.14 2556.01 2133.1 2557.03 2198.88 2555.99L2198.89 2396.11C2198.89 2362.34 2200.36 2327.9 2197.32 2294.28C2186.81 2178.09 2119.13 2070.18 2016.25 2014.54C1947.89 1977.56 1894.42 1974.97 1819.08 1974.98L1719.98 1975.03C1717.13 1983.07 1712.28 1990.59 1707.7 1997.78C1649.99 2088.34 1539.48 2121.39 1439.09 2086.13C1378.81 2064.96 1344.65 2029.18 1313.35 1975.03C1264.48 1975.67 1208.78 1971.5 1160.89 1975.03ZM1495.8 991.046C1079.88 1029.27 981.361 1577.78 1333.93 1754.56C1350.93 1763.08 1373.72 1769.55 1387.92 1781.96C1425.6 1814.89 1373.35 1898.7 1444.25 1958.61C1492.46 1999.35 1567.54 1991.7 1607.4 1943.25C1638.24 1905.76 1633.3 1860.83 1633.17 1815.46C1637.72 1773.87 1665.66 1771.64 1698.55 1755.48C1717.58 1746.13 1736.53 1735.34 1754.16 1723.59L1606.02 1723.67C1586.45 1723.67 1553.6 1725.78 1536.15 1722.52C1473.37 1710.79 1474.42 1616.64 1537.31 1606.43C1550.9 1604.22 1565.28 1605.21 1579.03 1605.27L1862.91 1605.37C1916.32 1506.37 1933.94 1392.25 1901.03 1283.32C1849.01 1111.13 1679.19 977.729 1495.8 991.046ZM832.063 1307.89C728.687 1321.46 686.241 1445.44 764.504 1510.02C764.549 1510.06 764.602 1510.08 764.651 1510.11C789.074 1531.32 813.02 1537.8 844.902 1537.96C843.427 1466.38 851.023 1376.58 844.902 1307.89C840.685 1307.81 836.247 1307.43 832.063 1307.89ZM2189.87 1311.33V1537.96C2223.29 1536.51 2250.46 1527.29 2276.26 1505.71C2351.07 1430 2295.62 1303.3 2189.87 1311.33Z" fill="url(#paint0_linear_11_92)"/>
<defs>
<linearGradient id="paint0_linear_11_92" x1="1518.63" y1="558.195" x2="1518.63" y2="2674.18" gradientUnits="userSpaceOnUse">
<stop stop-color="#1CCA82"/>
<stop offset="1" stop-color="#22E6CF"/>
</linearGradient>
</defs>
</svg>
