<svg width="3033" height="3231" viewBox="0 0 3033 3231" fill="none" xmlns="http://www.w3.org/2000/svg">
<path d="M50 904.881L864.178 50H2983V2347.5L2217.87 3181H50V904.881Z" stroke="#1CCA82" stroke-width="100"/>
<path d="M1071.86 557.199L1671.16 557.18C1766.76 557.182 1862.62 558.732 1958.19 557.199C1957.76 595.962 1958.22 634.788 1958.19 673.559C1911.11 674.107 1863.95 673.585 1816.87 673.559C1816.13 692.299 1816.81 711.318 1816.82 730.087L1816.93 836.075C1817.05 880.319 1826.58 936.801 1768.81 948.565C1729.16 956.636 1623.78 947.533 1576.42 949.362C1574.34 971.694 1576.39 1003.52 1576.41 1027.09L1576.42 1194.72C1597.94 1207.31 1618.32 1222.59 1639.07 1236.43L2063.73 1518.57C2081.23 1530.31 2099.03 1541.69 2115.98 1554.22C2177.48 1551.75 2239.72 1554.27 2301.29 1554.21L2379.12 1554.13C2404.88 1554.11 2430.95 1552.87 2456.23 1558.86C2544.03 1579.66 2573.85 1657.53 2574.08 1738.25L2574.14 2449.69C2574.18 2480.41 2576.9 2513.87 2571.4 2544.14C2559.75 2608.29 2507.35 2657.83 2444.17 2669.66C2421.93 2673.82 2398.45 2672.6 2375.89 2672.59L1958.19 2672.57L660.281 2672.57C627.811 2672.75 598.038 2675.19 566.909 2664C475.953 2631.3 458.807 2562.32 458.921 2478.58L458.989 1862.43C458.984 1808.03 450.827 1706.65 469.626 1656.63C509.991 1549.23 603.935 1554.22 695.474 1554.22L855.808 1554.11C916.755 1554.25 907.626 1559.12 958.024 1525.76L1404.29 1230.25C1421.88 1218.56 1439.56 1203.43 1458.71 1194.72V949.362C1418.37 950.655 1377.76 949.319 1337.39 949.403C1224.87 949.635 1214.75 951.881 1214.78 825.043L1214.81 673.559H1071.86C1071.88 634.779 1071.41 595.974 1071.86 557.199ZM2177.22 1670.16L670.949 1670.14C593.395 1670.14 577.645 1659.57 578.123 1752.64L578.213 2454C578.075 2571.61 588.161 2554.45 692.137 2554.34L861.034 2554.29L2369.86 2554.32C2399.53 2554.33 2449.3 2563.73 2454.01 2521.24C2456.73 2496.62 2454.57 2460.82 2454.51 2435.21L2454.65 1716.41C2454.3 1652.9 2388.25 1670.12 2341.87 1670.15L2177.22 1670.16ZM1515.62 1296.65C1483.33 1316.82 1451.99 1338.39 1420.4 1359.61L1129.88 1554.22H1512.03H1898.19C1879.66 1538.78 1858.64 1525.97 1838.79 1512.25L1584.37 1341.06C1572.1 1332.84 1526.98 1297.32 1515.62 1296.65ZM1336.63 673.559V833.373L1657.21 833.411C1670.2 833.425 1683.34 834.164 1696.31 833.373V673.559H1336.63Z" fill="url(#paint0_linear_11_140)"/>
<path d="M1515.62 1800.99C1539.49 1799.59 1569.8 1820.84 1574.55 1844.47C1578.89 1866.08 1576.42 1892.09 1576.43 1914.16L1576.48 2258.25C1576.51 2319.03 1597.9 2406.44 1522.75 2421.81C1445.81 2424.44 1458.7 2341.8 1458.68 2291.9L1458.69 1962.88C1458.68 1900.85 1438.48 1815.61 1515.62 1800.99Z" fill="url(#paint1_linear_11_140)"/>
<path d="M2096.61 1800.99C2130.76 1795.34 2162.6 1823.87 2164.43 1857.34C2166.01 1886.35 2164.82 1916.02 2164.83 1945.09L2164.82 2274.55C2164.81 2334.33 2182.08 2397.19 2115.98 2421.81C2036.37 2434.94 2043.2 2356.76 2043.19 2308.76L2043.09 1893.35C2042.89 1849 2042.28 1809.07 2096.61 1800.99Z" fill="url(#paint2_linear_11_140)"/>
<path d="M926.103 1800.99C1001.58 1800.29 990.529 1875.69 990.546 1925.71L990.571 2257.69C990.563 2307.96 1009.36 2426.37 930.468 2421.81C854.789 2433.67 868.056 2328.93 868.043 2285.81L868.073 1944.8C867.972 1888.85 850.299 1809.71 926.103 1800.99Z" fill="url(#paint3_linear_11_140)"/>
<defs>
<linearGradient id="paint0_linear_11_140" x1="1516.04" y1="557.18" x2="1516.04" y2="2672.92" gradientUnits="userSpaceOnUse">
<stop stop-color="#1CCA82"/>
<stop offset="1" stop-color="#3CE2C9"/>
</linearGradient>
<linearGradient id="paint1_linear_11_140" x1="1517.81" y1="1800.92" x2="1517.81" y2="2421.87" gradientUnits="userSpaceOnUse">
<stop stop-color="#1CCA82"/>
<stop offset="1" stop-color="#3CE2C9"/>
</linearGradient>
<linearGradient id="paint2_linear_11_140" x1="2104.95" y1="1800.27" x2="2104.95" y2="2423.28" gradientUnits="userSpaceOnUse">
<stop stop-color="#1CCA82"/>
<stop offset="1" stop-color="#3CE2C9"/>
</linearGradient>
<linearGradient id="paint3_linear_11_140" x1="929.37" y1="1800.98" x2="929.37" y2="2422.74" gradientUnits="userSpaceOnUse">
<stop stop-color="#1CCA82"/>
<stop offset="1" stop-color="#3CE2C9"/>
</linearGradient>
</defs>
</svg>
