<svg width="3033" height="3231" viewBox="0 0 3033 3231" fill="none" xmlns="http://www.w3.org/2000/svg">
<path d="M50 904.881L864.178 50H2983V2347.5L2217.87 3181H50V904.881Z" stroke="#1CCA82" stroke-width="100"/>
<path d="M1314.43 1809.36C1367.09 1802.03 1405.98 1871.64 1374.2 1914.68C1354.34 1941.59 1328.24 1969.83 1294.29 1974.96C1238.57 1976.77 1199.74 1914.83 1233.61 1868.73C1251.5 1844.37 1284.76 1813.62 1314.43 1809.36Z" fill="url(#paint0_linear_11_40)"/>
<path d="M937.638 1428.38C984.499 1427.47 1025.25 1434.69 1063.47 1463.84C1197.29 1565.9 1145.54 1778.18 967.447 1800.5C922.394 1805.12 871.429 1787.02 836.369 1759.33C705.224 1655.73 767.542 1447.02 937.638 1428.38ZM945.951 1558.99C868.998 1574.43 889.96 1678.98 958.491 1670.05C1033.28 1657.4 1016.78 1552.39 945.951 1558.99Z" fill="url(#paint1_linear_11_40)"/>
<path d="M1639.19 555.8C1742.54 551.501 1824.46 571.4 1881.06 670.257C1890.82 687.321 1897.01 705.816 1906.02 723.196C1963.26 728.21 2057.37 724.656 2115.66 723.196C2162.1 602.931 2262.44 532.936 2391.22 558.474C2474.55 575 2545.16 641.365 2570.38 721.919C2584.83 768.053 2576.84 849.999 2554.79 892.162C2458.19 1076.84 2180.97 1056.74 2119.03 852.28H1902.11C1816.12 1085.84 1514.36 1065.7 1452.44 852.28L1161.77 852.17C1038.29 852.389 1036.52 907.43 1036.56 1013.67C1036.57 1042.03 1036.28 1070.4 1036.59 1098.76C1057.71 1103.46 1078.98 1107.16 1099.93 1112.69C1298.36 1165.13 1463.12 1341.7 1479.35 1549.57H2125.03C2142.01 1475.07 2210.41 1411.63 2281.93 1390.69C2405.27 1354.58 2537.33 1430.65 2572.36 1553.45C2578.43 1574.7 2578.46 1650.65 2574.04 1671.57C2528.24 1888.18 2188.29 1912.5 2125.03 1681.73C2105.86 1681.04 2086.45 1681.72 2067.26 1681.72L1484.07 1681.79C1453.73 1681.8 1414.9 1687.51 1387.07 1672.6C1344.35 1649.71 1352.17 1605.37 1349.7 1564.54C1342.26 1441.94 1250.99 1327.37 1146.11 1270.75C959.651 1176.16 752.591 1235.64 641.469 1413.93C568.855 1530.44 566.186 1685.7 633.792 1804.95C701.466 1924.31 840.851 2011.72 980.727 1998.42C1013.33 1995.32 1050.24 1983.5 1080.15 2002.5C1112.5 2023.06 1122.79 2065.1 1101.37 2097.6C1084.8 2122.74 1059.74 2124.82 1032.93 2130.27L1032.87 2245.17C1032.89 2338.65 1070.01 2378.66 1163.85 2378.66L1452.44 2378.61C1459.57 2362.47 1465.64 2346.23 1474.25 2330.73C1531.72 2227.23 1658.45 2184.42 1767.86 2227.85C1890.24 2276.42 1941.44 2419.24 1893.23 2539.41C1850.28 2646.47 1736.97 2692.05 1628.46 2673.16C1534.17 2656.74 1486.24 2589.33 1452.44 2508.54L1178.43 2508.56C1147.06 2508.58 1115.84 2509.31 1085.11 2501.82C987.926 2478.13 914.674 2393.92 905.305 2294.12C903.274 2272.45 904.182 2250.27 904.178 2228.52L904.22 2130.27C878.838 2123.33 852.625 2120.81 827.084 2113.52C648.963 2062.65 513.405 1914.13 467.883 1736.21C450.643 1668.83 452.121 1546 469.669 1479.97C518.561 1295.96 673.686 1143.19 861.147 1104.68C874.889 1101.86 890.192 1098.02 904.22 1098.76C903.219 987.989 890.238 866.901 977.628 785.212C1042.39 724.676 1099.57 723.012 1182.53 723.163L1391.65 723.196C1411.91 723.169 1432.19 722.491 1452.44 723.196C1474.18 641.261 1554.72 565.861 1639.19 555.8ZM1667.51 683.022C1517.55 711.18 1560.52 905.222 1688.65 890.112C1788.38 870.272 1816.37 753.421 1733.52 699.445C1715.75 687.867 1688.88 679.515 1667.51 683.022ZM1676.05 2342.27C1523.83 2363.06 1556.21 2556.81 1688.65 2549.22C1844.35 2516.52 1786.47 2329.78 1676.05 2342.27ZM2330.95 683.022C2187.53 710.43 2222.21 905.193 2358.54 890.112C2459.49 860.948 2480.63 744.244 2393.56 697.185C2373.65 686.421 2353.25 684.32 2330.95 683.022ZM2335.17 1513.52C2240.37 1528.63 2209.61 1644.26 2288.46 1699.46C2307.69 1712.92 2335.2 1721.28 2358.54 1716.28C2498.58 1692.19 2464.05 1499.87 2335.17 1513.52Z" fill="url(#paint2_linear_11_40)"/>
<defs>
<linearGradient id="paint0_linear_11_40" x1="1303.31" y1="1808.82" x2="1303.31" y2="1975" gradientUnits="userSpaceOnUse">
<stop stop-color="#1CCA82"/>
<stop offset="1" stop-color="#18D1BB"/>
</linearGradient>
<linearGradient id="paint1_linear_11_40" x1="952.403" y1="1428.31" x2="952.403" y2="1801.22" gradientUnits="userSpaceOnUse">
<stop stop-color="#1CCA82"/>
<stop offset="1" stop-color="#18D1BB"/>
</linearGradient>
<linearGradient id="paint2_linear_11_40" x1="1516.68" y1="553.241" x2="1516.68" y2="2677.32" gradientUnits="userSpaceOnUse">
<stop stop-color="#1CCA82"/>
<stop offset="1" stop-color="#18D1BB"/>
</linearGradient>
</defs>
</svg>
