<svg width="3033" height="3231" viewBox="0 0 3033 3231" fill="none" xmlns="http://www.w3.org/2000/svg">
<path d="M50 904.881L864.178 50H2983V2347.5L2217.87 3181H50V904.881Z" stroke="#1CCA82" stroke-width="100"/>
<path d="M1123 854.919C1249.49 852.064 1402.52 930.265 1455.23 1049.03C1485.67 1117.61 1397.16 1175.09 1348.82 1119.22C1341.03 1110.21 1335.3 1099.05 1328.42 1089.3C1221.73 938.229 983.313 957.811 913.681 1131.8C889.153 1193.1 890.65 1256.79 916.684 1317.19C953.613 1397.47 977.111 1389.31 1027.69 1433.97C1083.62 1483.36 1027.87 1624.77 885.078 1491.3C642.474 1264.54 795.056 864.573 1123 854.919Z" fill="url(#paint0_linear_1_67)"/>
<path d="M603.554 555.802C630.126 554.161 657.188 555.766 683.817 555.772L1638.99 555.721C1653.78 555.7 1669.15 554.791 1683.77 557.144C1750.37 567.863 1805.61 633.784 1820.73 696.824C1829.17 731.998 1825.59 783.623 1825.54 820.637L1825.62 974.301C1825.23 1052.36 1721.47 1072.37 1695.61 1000.81C1685.98 974.167 1691.1 936.099 1691.14 908.159L1691.18 782.2C1691.44 716.845 1692.14 679.922 1613.31 678.895C1540.41 677.946 1467.38 678.834 1394.47 678.831L751.065 678.796C710.692 678.789 631.275 667.774 601.462 697.333C580.069 718.545 582.635 743.735 582.847 771.474L582.97 819.163L582.99 1657.04C582.789 1770.42 571.482 1793.8 687.747 1793.75L822.695 1793.64C851.881 1793.6 889.262 1786.76 914.657 1805.02C942.864 1825.31 951.178 1869.09 929.934 1897.32C906.364 1928.63 869.948 1923.74 835.352 1923.7L667.091 1923.61C610.741 1923.87 574.326 1923.17 526.443 1886.51C459.536 1835.28 456.725 1789.95 456.862 1716.71L456.84 760.922C456.841 740.692 455.537 719.39 458.139 699.332C466.655 633.691 538.883 563.072 603.554 555.802Z" fill="url(#paint1_linear_1_67)"/>
<path d="M1806.19 1128.27L1812.8 1128.21C2150.73 1127.85 2448.3 1364.28 2546.55 1682.56C2566.79 1748.12 2576.24 1803.31 2576.18 1871.05L2576.21 1946C2576.46 2305.86 2256.14 2635.33 1901.79 2673.08C1869.15 2676.56 1835.77 2675.23 1802.97 2675.18C1772.55 2675.24 1741.62 2676.49 1711.35 2673.33C1327.25 2633.21 1036.57 2293.05 1031.91 1909.96C1027.44 1542.08 1298.21 1208.71 1660.02 1141.34C1708.24 1132.37 1757.24 1128.95 1806.19 1128.27ZM1776.89 1255.98C1747.9 1258.43 1718.77 1260.7 1690.17 1266.18C1368.29 1327.92 1134.66 1630.33 1163.3 1958.73C1190.23 2267.38 1430.09 2512.99 1737.37 2544.84C1770.1 2548.23 1802.42 2548.36 1835.3 2548.01C1855.82 2546.64 1876.3 2545.44 1896.67 2542.5C2295.74 2484.85 2541.23 2080.36 2416.59 1703.29C2325.47 1427.62 2066.97 1249.68 1776.89 1255.98Z" fill="url(#paint2_linear_1_67)"/>
<path d="M1802.97 1420.35C1821.51 1417.66 1841.07 1425.84 1854.25 1438.59C1882.4 1465.82 1872.7 1515.26 1873.42 1551.32C1906.85 1551.39 1983.25 1546.4 2010.09 1553.09C2074.86 1569.23 2075.15 1663.96 2010.1 1678.93C1983.74 1684.99 1904.26 1680.28 1873.42 1680.67C1872.51 1702.04 1873.39 1723.64 1873.4 1745.03L1873.42 2057.05C1873.42 2088.21 1872.81 2119.45 1873.42 2150.6C1907.67 2150.75 1941.42 2147.09 1975.58 2145.77C2055.54 2142.68 2075.52 2251.49 2002.18 2273C1979.64 2279.62 1898.15 2281 1873.42 2280.9L1873.49 2301.37C1873.58 2334.82 1875.53 2362.72 1850.37 2388.01C1823.75 2411.08 1783.35 2412.42 1758.39 2385.78C1734.92 2360.72 1740.51 2309.89 1741.44 2276.62C1541.18 2236.38 1406.01 2074.39 1427.92 1866.75C1443.24 1721.49 1558.33 1587.43 1701.82 1555.29C1714.77 1552.39 1728.14 1549.81 1741.44 1551.32L1741.34 1509.47C1741.26 1462.78 1749.9 1426.31 1802.97 1420.35ZM1736.19 1680.67C1719.28 1686.4 1702.23 1692.14 1686.2 1700.06C1540.97 1771.8 1517.46 1968.59 1627.37 2080.26C1660.97 2112.75 1696.54 2131.1 1741.44 2143.08C1740 2108.61 1741.45 2073.59 1741.46 2039.05L1741.09 1863.86C1741.19 1842.08 1743.7 1689.8 1740.01 1681.31C1738.51 1680.81 1737.82 1680.62 1736.19 1680.67Z" fill="url(#paint3_linear_1_67)"/>
<defs>
<linearGradient id="paint0_linear_1_67" x1="1113.74" y1="854.844" x2="1113.74" y2="1547.13" gradientUnits="userSpaceOnUse">
<stop stop-color="#1CCA82"/>
<stop offset="1" stop-color="#2FE1CC"/>
</linearGradient>
<linearGradient id="paint1_linear_1_67" x1="1141.43" y1="555.064" x2="1141.43" y2="1924" gradientUnits="userSpaceOnUse">
<stop stop-color="#1CCA82"/>
<stop offset="1" stop-color="#2FE1CC"/>
</linearGradient>
<linearGradient id="paint2_linear_1_67" x1="1804.03" y1="1128.21" x2="1804.03" y2="2675.47" gradientUnits="userSpaceOnUse">
<stop stop-color="#1CCA82"/>
<stop offset="1" stop-color="#2FE1CC"/>
</linearGradient>
<linearGradient id="paint3_linear_1_67" x1="1742.18" y1="1419.84" x2="1742.18" y2="2405.54" gradientUnits="userSpaceOnUse">
<stop stop-color="#1CCA82"/>
<stop offset="1" stop-color="#2FE1CC"/>
</linearGradient>
</defs>
</svg>
