<svg width="3033" height="3231" viewBox="0 0 3033 3231" fill="none" xmlns="http://www.w3.org/2000/svg">
<path d="M50 904.881L864.178 50H2983V2347.5L2217.87 3181H50V904.881Z" stroke="#1CCA82" stroke-width="100"/>
<path d="M651.027 1245.07C664.64 1243.69 679.714 1244.98 693.452 1245.01L899.859 1245.02C941.418 1245 1000.74 1234.41 1010.16 1289.99C1014.75 1317.11 991.648 1342.41 965.631 1346.23C949.479 1347.5 932.31 1346.27 916.057 1346.25H713.117C687.867 1346.31 650.093 1352.17 627.691 1337.65C585.848 1310.55 604.278 1250.7 651.027 1245.07Z" fill="url(#paint0_linear_1_50)"/>
<path d="M645.058 1083.96C664.352 1082.19 685.292 1083.89 704.748 1083.93L1006.86 1083.95C1031.94 1083.93 1104.89 1078.15 1125.78 1089.43C1170.4 1113.55 1155.02 1174.62 1109.55 1185.21C1086.2 1187.14 1061.38 1185.24 1037.87 1185.23L729.232 1185.26C688.753 1185.26 610.454 1198.8 601.834 1141.84C597.604 1113.89 617.072 1087.86 645.058 1083.96Z" fill="url(#paint1_linear_1_50)"/>
<path d="M928.845 1758.03C952.751 1757.64 979.02 1754.66 997.993 1772.45C1019.33 1792.45 1019.2 1824.19 998.401 1844.6C974.655 1867.91 936.027 1859.56 905.814 1859.54L763.797 1859.48C764.933 1886.48 763.839 1914.05 763.832 1941.1L763.797 2107.02L831.48 2106.8C935.863 2106.94 965.715 2135.65 965.698 2240.13L965.631 2305.96C1010.15 2306.89 1054.91 2305.93 1099.45 2305.94L1375.61 2305.96L1375.58 2203.67C1375.51 2178.08 1370.1 2146.37 1387.91 2125.04C1418.77 2088.09 1477.91 2108.37 1478.62 2166.89C1479.02 2200.63 1483.7 2338.24 1477.16 2365.84C1465.35 2415.73 1411.15 2407.03 1372.85 2407.02L1246.85 2406.94H965.631L965.702 2478.04C965.82 2538.03 953.541 2615.31 876.95 2616.17C796.312 2617.09 715.562 2616.24 634.914 2616.22L568.323 2616.2C534.533 2616.21 511.134 2617.21 485.212 2591.62C465.691 2572.35 457.032 2556.1 456.876 2528.46L456.849 2220.5C456.892 2124.21 506.427 2106.89 594.281 2106.95L660.387 2107.02C660.712 2100.36 660.564 2093.72 660.505 2087.06L660.353 1840.1C660.428 1748.62 692.785 1757.95 776.875 1757.97L928.845 1758.03ZM557.738 2210.35L556.305 2211.19L557.738 2518.43H862.644L863.683 2517.79L862.615 2299.26C862.611 2269.93 860.971 2239.59 862.644 2210.35L659.494 2210.32C625.624 2210.32 591.581 2209.52 557.738 2210.35Z" fill="url(#paint2_linear_1_50)"/>
<path d="M535.693 496.796C548.275 496.166 561.125 496.741 573.747 496.76L1099.78 496.796C1138.38 496.786 1177.84 495.056 1216.34 497.002C1257.32 499.073 1293.41 539.368 1295.38 579.93C1296.43 601.415 1295.49 623.381 1295.49 644.901L1295.24 881.43C1295.24 951.12 1294.62 995.148 1216.74 1019.28C1201.74 1019.98 1186.44 1019.3 1171.4 1019.29L634.064 1019.23C606.137 1019.23 568.989 1021.31 542.13 1017.63C509.31 1013.13 459.691 976.704 457.53 941.457C455.863 914.271 456.845 886.683 456.837 859.429L456.858 623.09C456.847 604.735 455.678 585.315 458.059 567.121C462.383 534.094 505.026 500.889 535.693 496.796ZM564.893 594.594C553.05 596.755 558.26 613.572 558.159 622.607L557.738 918.371H1190.87C1200.93 917.715 1196.28 888.678 1196.26 881.517L1196.28 594.594H564.893Z" fill="url(#paint3_linear_1_50)"/>
<path d="M744.638 704.975C793.506 708.292 983.065 697.752 1011.79 711.802C1056.96 733.89 1049.71 793.467 994.482 808.918C954.323 807.771 746.499 815.676 721.572 801.918C680.428 779.21 692.268 719.523 744.638 704.975Z" fill="url(#paint4_linear_1_50)"/>
<path d="M1421.67 1083.96C1458.77 1084.59 1593.15 1079.05 1617.98 1088.93C1676.74 1112.31 1643.71 1181.8 1654.96 1207.9C1675.93 1218.26 1722.16 1112.79 1782.21 1166.61C1802.77 1185.03 1899.23 1280.58 1910.34 1298.42C1936.34 1340.15 1881.51 1375.56 1859.2 1399.85C1859.08 1405.65 1859.2 1411.48 1859.2 1417.28C1979.96 1414.66 1979.03 1422.82 1979.07 1546.61C1979.1 1631.53 2000.5 1696.73 1884.88 1691.79C1871.74 1691.23 1863.07 1687.78 1859.2 1702.19C1893.27 1758.14 1962.13 1759.4 1879.89 1841.11L1833.8 1886.65C1771.66 1948.3 1756.3 1989.7 1680.47 1911.82C1627.74 1857.66 1701.32 2002.74 1611.27 2017.6L1483.54 2017.64C1456.79 2017.64 1418.89 2024.61 1396.21 2006.72C1357.91 1976.52 1387.9 1911.27 1371.14 1898.81C1359.08 1899.98 1328.68 1949.28 1295.94 1954.54C1255.87 1961 1228.62 1917.77 1203.98 1893.23L1153.16 1842.98C1054.45 1744.42 1180.06 1732.05 1173.03 1691.7C1162.15 1684.65 1102.73 1695.77 1080.45 1683.95C1046.87 1666.13 1053.44 1629.26 1053.44 1597.3L1053.45 1525.51C1053.43 1504.63 1051.55 1482.15 1053.5 1461.43C1061.22 1379.27 1191.11 1434.07 1171.52 1402.17C1163.14 1388.52 1137.66 1370.78 1126.16 1353.61C1099.33 1313.57 1131.37 1286.85 1157.61 1260.82L1212.65 1206.58C1238.4 1181.21 1267.88 1134.99 1310.43 1152.84C1330.14 1161.11 1357.43 1193.37 1375.61 1208.58C1375.61 1159.53 1359.43 1101.07 1421.67 1083.96ZM1481.74 1192.66C1481.92 1268.85 1484.3 1273.68 1414.62 1301.4C1341.67 1330.43 1350.5 1329.17 1290.63 1272.45C1274.64 1286.13 1251.06 1307.85 1238.5 1324.28C1260.08 1345.77 1296.45 1369 1285.48 1404.26C1280.39 1420.59 1253.84 1492.25 1243.75 1501.33C1222.11 1520.82 1182.71 1515.22 1155.38 1515.05C1155.04 1539.36 1155.67 1563.68 1155.38 1587.99C1188.45 1587.81 1234.87 1580.43 1253.15 1615.86C1261.18 1631.42 1279.25 1682.57 1284.4 1700.38C1295.29 1738.06 1255.72 1762.01 1234.16 1786.09C1247.53 1795.44 1274.51 1822.64 1286.55 1836.32C1346.95 1776.38 1341.04 1776.41 1416.78 1805.67C1491.05 1834.38 1478.43 1838.51 1478.65 1918.14H1551.8L1554.16 1917.39C1556.17 1911.7 1555.49 1904.29 1555.53 1898.23C1556.03 1822.44 1563.34 1828.36 1624.87 1802.19C1687.56 1775.52 1693.21 1777.59 1742.01 1836.32C1755.9 1822.52 1783.7 1796.97 1794.49 1782.55L1793.17 1781.01C1731.01 1709.05 1734.87 1742.94 1766.15 1660.73C1773.17 1642.29 1773.58 1617.41 1789.36 1603.74C1809.24 1586.52 1853.01 1591.68 1878.23 1591.73C1878.23 1567.32 1878.64 1542.82 1878.23 1518.41C1853.62 1518.47 1807.1 1523.86 1788.38 1505.67C1782.83 1500.28 1745.13 1401.53 1745.16 1394.81C1745.29 1366.2 1772.14 1340.17 1794.49 1324.28C1784.09 1308.7 1758.02 1282.13 1742.01 1272.45C1716.08 1290.69 1701.74 1324.31 1665.35 1318.1C1652.86 1315.97 1591.07 1291.68 1579.67 1285.02C1544.59 1264.52 1551.81 1227.92 1551.8 1192.66H1481.74Z" fill="url(#paint5_linear_1_50)"/>
<path d="M1497.26 1334.67C1609.61 1316.82 1720 1419.29 1733.44 1529.11C1748.52 1652.25 1661.98 1756.8 1540.53 1771.83C1345.77 1785.3 1228.81 1572.17 1341.44 1420.6C1380.83 1367.61 1433.46 1343.89 1497.26 1334.67ZM1505.85 1437.12C1345.22 1455.47 1384.47 1688.54 1526.26 1670.02C1630.34 1655.46 1673.06 1525.09 1583.26 1459.64C1562.53 1444.54 1531.8 1432.55 1505.85 1437.12Z" fill="url(#paint6_linear_1_50)"/>
<path d="M2143.65 496.796C2216.3 490.51 2319.98 496.797 2396.08 496.774L2466.15 496.756C2479.53 496.762 2494.7 495.399 2507.76 498.113C2545.38 505.928 2575.93 545.324 2576.18 582.942L2576.21 895.905C2576.16 988.882 2523.96 1004.75 2440.58 1004.65L2369.08 1004.58C2368.2 1016.06 2368.95 1027.75 2369.03 1039.26L2369.08 1295.76L2437.38 1295.68C2478.16 1295.63 2514.19 1294.4 2546.21 1323.97C2588.38 1362.92 2576.21 1408.11 2576.21 1461.72L2576.2 1700.31C2576.17 1734.68 2578.49 1751.86 2553.24 1778.96C2503.99 1831.82 2433.86 1814.93 2369.08 1817.19V2107.02C2429.48 2107.67 2505.4 2094.52 2550.78 2138.15C2567.53 2154.26 2575.67 2170.56 2576.15 2193.91C2577.82 2275.33 2576.22 2357.14 2576.2 2438.59L2576.2 2506.79C2576.21 2542.44 2578.73 2559.82 2552.07 2587.29C2532.85 2607.09 2516.27 2615.98 2488.47 2616.17L2183.64 2616.2C2132.87 2616.16 2089.71 2610.88 2071.61 2550.78C2064.72 2527.89 2067.29 2501.16 2067.31 2477.46L2067.38 2406.94C2030.16 2405.44 1992.17 2406.96 1954.87 2406.96L1646.47 2407.02C1599 2407.17 1557.87 2408.51 1555.6 2348.97C1554.24 2312.97 1555.67 2276.4 1555.57 2240.33C1555.48 2206.39 1546.07 2149.43 1571.09 2122.34C1597.12 2096.65 1647.3 2105.33 1656.7 2143.22C1661.55 2162.73 1659.04 2187.09 1659.03 2207.13L1659 2305.96L1948.79 2305.95C1987.41 2306.06 2029.23 2302.94 2067.38 2305.96C2063.32 2191.06 2059.17 2107.05 2205.53 2106.98L2265.05 2107.02C2266.52 2084.12 2265.11 2060.15 2265.11 2037.14L2265.06 1892C2265.03 1867.1 2264.03 1842.06 2265.05 1817.19L2202.68 1817.27C2115.81 1817.4 2068.69 1795.29 2067.42 1700.06C2066.55 1634.97 2067.33 1569.75 2067.35 1504.65C2067.39 1382.18 2050.84 1293.94 2204.8 1295.62L2265.05 1295.76L2265.06 1093.08C2265.04 1063.66 2264.09 1033.97 2265.05 1004.58C2210.58 1004.64 2133.88 1016.69 2093.86 972.394C2060.15 935.082 2064.59 855.446 2067.38 804.835C1912.87 803.276 1758.27 806.294 1603.76 804.835L1603.86 908.338C1603.88 935.267 1610.19 968.046 1590.11 989.63C1571.56 1009.56 1536.79 1011.01 1517.14 991.817C1491.86 967.104 1501.95 860.129 1501.9 824.462C1501.77 725.616 1488.54 704.91 1605.29 704.947L2067.38 704.975C2066.08 656.909 2059.75 567.543 2087.28 531.963C2100.52 514.856 2121.73 499.461 2143.65 496.796Z" fill="url(#paint7_linear_1_50)"/>
<defs>
<linearGradient id="paint0_linear_1_50" x1="807.543" y1="1244.2" x2="807.543" y2="1347.47" gradientUnits="userSpaceOnUse">
<stop stop-color="#41F181"/>
<stop offset="1" stop-color="#38D5BD"/>
</linearGradient>
<linearGradient id="paint1_linear_1_50" x1="876.862" y1="1082.45" x2="876.862" y2="1186.67" gradientUnits="userSpaceOnUse">
<stop stop-color="#41F181"/>
<stop offset="1" stop-color="#38D5BD"/>
</linearGradient>
<linearGradient id="paint2_linear_1_50" x1="968.732" y1="1757.61" x2="968.732" y2="2616.6" gradientUnits="userSpaceOnUse">
<stop stop-color="#41F181"/>
<stop offset="1" stop-color="#38D5BD"/>
</linearGradient>
<linearGradient id="paint3_linear_1_50" x1="876.217" y1="496.078" x2="876.217" y2="1019.81" gradientUnits="userSpaceOnUse">
<stop stop-color="#41F181"/>
<stop offset="1" stop-color="#38D5BD"/>
</linearGradient>
<linearGradient id="paint4_linear_1_50" x1="869.086" y1="704.261" x2="869.086" y2="810.153" gradientUnits="userSpaceOnUse">
<stop stop-color="#41F181"/>
<stop offset="1" stop-color="#38D5BD"/>
</linearGradient>
<linearGradient id="paint5_linear_1_50" x1="1516.63" y1="1082.97" x2="1516.63" y2="2018.98" gradientUnits="userSpaceOnUse">
<stop stop-color="#41F181"/>
<stop offset="1" stop-color="#38D5BD"/>
</linearGradient>
<linearGradient id="paint6_linear_1_50" x1="1516.29" y1="1332.63" x2="1516.29" y2="1772.44" gradientUnits="userSpaceOnUse">
<stop stop-color="#41F181"/>
<stop offset="1" stop-color="#38D5BD"/>
</linearGradient>
<linearGradient id="paint7_linear_1_50" x1="2038.9" y1="494.002" x2="2038.9" y2="2616.2" gradientUnits="userSpaceOnUse">
<stop stop-color="#41F181"/>
<stop offset="1" stop-color="#38D5BD"/>
</linearGradient>
</defs>
</svg>
