<svg width="3033" height="3231" viewBox="0 0 3033 3231" fill="none" xmlns="http://www.w3.org/2000/svg">
<path d="M50 904.881L864.178 50H2983V2347.5L2217.87 3181H50V904.881Z" stroke="#1CCA82" stroke-width="100"/>
<path d="M696.068 2065.45L828.208 2065.4C931.477 2065.39 1034.22 2070.07 1066.28 2196.68C1075.45 2232.9 1071.84 2279.7 1071.8 2317.39L1071.86 2447.3C1071.88 2515.03 1075.28 2575.48 1023.09 2627.21C988.725 2661.27 957.145 2675.48 910.103 2675.18L744.739 2675.24C677.278 2675.25 645.59 2684.45 590.834 2639.38C533.835 2592.46 532.427 2538.4 532.484 2472.15L532.478 2279.87C532.469 2254.37 530.795 2227.36 535.739 2202.25C551.299 2123.22 616.983 2072.28 696.068 2065.45ZM696.068 2188.46C647.648 2197.33 659.655 2257.83 659.642 2293.93L659.62 2486.11C659.628 2558.22 680.938 2553.16 745.381 2553.18L876.058 2553.2C887.278 2553.2 898.93 2553.88 910.103 2553.15C922.958 2547.33 937.234 2537.17 942.204 2523.44C946.901 2510.46 950.371 2230.4 941.531 2213.23C924.623 2180.38 885.419 2188.42 854.914 2188.4L764.431 2188.4C744.33 2188.4 714.977 2186.75 696.068 2188.46Z" fill="url(#paint0_linear_1_37)"/>
<path d="M1397.36 1880.23L1582.99 1880.13C1678.61 1879.92 1767.51 1908.79 1790.57 2017.05C1796.64 2045.55 1795.11 2075.12 1795.12 2104.09L1795.61 2504.17C1795.47 2595.86 1732.55 2675.86 1636.87 2675.18L1453.66 2675.17C1394.07 2675.19 1358.65 2683.54 1308.6 2645.67C1230.49 2586.56 1236.85 2515.78 1237.42 2429.76L1237.22 2122.26C1237.22 2091.81 1234.63 2057.25 1239.29 2027.22C1251.9 1945.91 1316.28 1889.97 1397.36 1880.23ZM1409.42 2004.49C1346.08 2011.02 1363.73 2076.91 1363.81 2124.96V2439.31C1363.79 2461.89 1361.78 2491.35 1364.36 2512.98C1370.73 2566.6 1440.75 2553.17 1478.5 2553.18L1622.42 2553.15C1680.73 2551.3 1668.86 2495.01 1668.88 2453.85L1668.9 2163.62C1668.88 2126.33 1669.54 2088.9 1668.14 2051.63C1665.89 1991.48 1601.13 2004.49 1559.43 2004.48L1409.42 2004.49Z" fill="url(#paint1_linear_1_37)"/>
<path d="M644.924 555.807L655.118 555.703L1386.15 555.769C1468.72 555.77 1513.78 553.909 1579.27 619.521C1654.08 694.457 1646.81 769.013 1646.82 866.017L1646.83 1040.46C1670.23 1040.43 1798.34 1035.46 1812.85 1044.81C1832.68 1057.59 1865.23 1095.32 1883.46 1113.34C1930.6 1159.93 1978.69 1205.75 2024.89 1253.26L2024.87 1131.72C2024.84 1099.35 2021.96 1063.82 2029.66 1032.2C2050.44 946.835 2120.3 908.809 2201.89 908.036L2334.25 907.947C2372.28 907.955 2421.59 904.306 2457.86 913.895C2517.15 929.575 2575.92 986.244 2576.16 1050.42L2576.22 2497.89C2576.22 2513.89 2577.44 2531.09 2575.46 2546.94C2568.8 2600.14 2514.78 2658.46 2463.23 2672.88C2445.36 2677.88 2402.21 2675.24 2382.18 2675.24L2236.09 2675.18C2165.18 2675.34 2127.29 2684.33 2072.48 2629.5C2030.78 2587.79 2024.6 2542.72 2024.78 2487.74L2024.89 1432.61C1936.06 1347.29 1846.23 1243.79 1754.78 1164.51C1718.82 1164.06 1682.79 1164.5 1646.83 1164.51L1646.36 1345.58C1646.53 1384.44 1650.44 1435.62 1643.06 1473.06C1624.95 1564.82 1549.4 1642.96 1455.25 1655.58C1433.91 1658.44 1412.17 1657.69 1390.69 1657.69L703.136 1657.67C686.623 1657.66 669.704 1658.33 653.317 1656.09C563.876 1643.85 469.77 1563.29 458.276 1471.7C456.049 1453.96 456.842 1435.64 456.839 1417.79L456.793 778.465C456.781 764.791 455.939 750.256 458.036 736.735C471.523 649.742 558.323 566.021 644.924 555.807ZM687.811 675.705C599.18 685.701 578.282 741.847 578.216 821.733L578.197 1395.77C578.21 1458.96 594.812 1523.87 671.81 1532.02C689.154 1533.86 707.24 1533.03 724.682 1533.01L1389.62 1533.11C1452.68 1533.38 1508.42 1520.45 1521.55 1444.72C1525.35 1422.83 1522.87 1383.16 1522.89 1359.63L1522.91 1164.51C1468.07 1164.51 1413.14 1165.24 1358.31 1164.51C1324.31 1203.43 1285.59 1239.2 1249.1 1275.82L1211.1 1313.8C1164.78 1360.23 1156.82 1349.58 1094.97 1349.57L984.032 1349.49L836.644 1349.45C741.369 1349.45 718.462 1351.9 718.572 1255.51L718.659 1173.09C718.659 1077.82 717.373 982.367 718.597 887.121C719.462 819.846 774.188 822.817 825.456 822.873L1073.66 822.941C1142.19 822.929 1160.91 808.473 1210.59 858.651L1338.36 987.69C1355.64 1005.21 1372.4 1023.22 1389.96 1040.46H1522.91L1522.93 854.424C1522.91 802.032 1532.57 749.26 1492.36 708.574C1455.05 670.829 1413.25 675.691 1364.5 675.691L687.811 675.705ZM2188.04 1031.98C2164.23 1036.09 2152.78 1051.08 2152.35 1074.69C2151.62 1115.54 2152.5 1156.59 2152.48 1197.46L2152.4 2474.62C2152.33 2545.57 2150.91 2553.19 2230.39 2553.18L2386.75 2553.18C2398.84 2553.19 2411.5 2554.26 2423.5 2553.15C2470.62 2537.31 2454.55 2447.2 2454.53 2404.08L2454.58 1135.26C2454.61 1095.76 2467.92 1034.75 2414.08 1032.24C2368.82 1030.14 2322.66 1031.93 2277.31 1031.93L2216.27 1031.93C2207.05 1031.93 2197.19 1031.19 2188.04 1031.98ZM843.563 947.939C842.803 979.272 843.55 1010.76 843.556 1042.11L843.563 1226.53H1124.84L1192.16 1159.09C1214.97 1135.39 1238.32 1112.07 1262.12 1089.38C1215.37 1050 1166.73 991.538 1120.43 947.939H843.563Z" fill="url(#paint2_linear_1_37)"/>
<defs>
<linearGradient id="paint0_linear_1_37" x1="802.368" y1="2065.4" x2="802.368" y2="2676.02" gradientUnits="userSpaceOnUse">
<stop stop-color="#4DE88E"/>
<stop offset="1" stop-color="#13F4F4"/>
</linearGradient>
<linearGradient id="paint1_linear_1_37" x1="1516.06" y1="1880.12" x2="1516.06" y2="2675.97" gradientUnits="userSpaceOnUse">
<stop stop-color="#4DE88E"/>
<stop offset="1" stop-color="#13F4F4"/>
</linearGradient>
<linearGradient id="paint2_linear_1_37" x1="1516.6" y1="555.703" x2="1516.6" y2="2675.93" gradientUnits="userSpaceOnUse">
<stop stop-color="#4DE88E"/>
<stop offset="1" stop-color="#13F4F4"/>
</linearGradient>
</defs>
</svg>
