<svg width="3033" height="3231" viewBox="0 0 3033 3231" fill="none" xmlns="http://www.w3.org/2000/svg">
<path d="M50 904.881L864.178 50H2983V2347.5L2217.87 3181H50V904.881Z" stroke="#1CCA82" stroke-width="100"/>
<path d="M574.565 555.802L1810.11 555.783C1883.25 555.774 1956.54 554.833 2029.67 555.908C2061.19 556.371 2093.61 576.022 2115 598.324C2159.79 645.053 2154.68 701.838 2154.66 761.243L2154.59 1211.4C2154.59 1260.93 2155.89 1310.74 2154.68 1360.24C2153.03 1427.78 2060.14 1447.23 2037.88 1380.94C2031.13 1360.82 2034.33 1267.67 2034.34 1238.68L2034.38 753.657C2034.39 720.853 2045.49 673.763 1997.62 673.254C1899.8 672.214 1801.79 673.489 1703.94 673.489L659.982 673.454C631.559 673.46 578.708 663.804 574.984 704.774C572.566 731.376 574.572 760.573 574.582 787.49L574.565 1489.27L1023.55 1489.28C1119.71 1489.28 1215.93 1489.94 1312.09 1488.81C1364.85 1488.19 1399.94 1550.89 1359.15 1591.13C1330.45 1619.44 1282.05 1609.29 1245.78 1609.18L574.565 1609.19L574.386 1666.27C574.211 1737.2 589.934 1739.13 657.744 1738.94L1211.48 1738.8C1259.9 1738.77 1335.71 1734.25 1324.21 1810.81C1312.08 1863.43 1268.48 1861.81 1223.2 1861.58C1222.14 1886.54 1223.16 1912.02 1223.16 1937.03L1223.2 2089.62H1458.25L1458.19 1767.42C1458.18 1742.57 1457.26 1716.94 1462.57 1692.52C1498.96 1525.2 1680.28 1556.62 1808.65 1556.62L2336.57 1556.71C2368.11 1556.83 2401.61 1554.23 2432.71 1559.86C2501.87 1572.39 2575.28 1636.05 2576.2 1710.2C2576.99 1774.89 2576.16 1839.69 2576.16 1904.39L2576.22 2460.08C2576.24 2483.89 2578.67 2520.15 2574.61 2542.35C2562.02 2611.24 2489.81 2674.87 2419.69 2675.26L1673.42 2675.2C1647.16 2675.2 1610.56 2677.8 1585.38 2673.05C1526.21 2661.91 1476.28 2602.39 1462.86 2545.92C1454.66 2511.42 1458.29 2451.19 1458.29 2413.63L1458.25 2210.53C1444.6 2211.35 1430.85 2210.56 1417.18 2210.55L958.827 2210.55C936.818 2210.57 913.475 2212.45 891.668 2210.11C824.522 2202.9 818.286 2105.4 883.691 2091.57C905.389 2086.98 937.688 2089.55 960.362 2089.55L1102.35 2089.62V1861.58L656.994 1861.64C604.125 1861.67 562.847 1862.14 518.158 1828.12C457.079 1781.61 456.718 1745.23 456.827 1678.54L456.818 741.044C456.812 720.437 455.415 698.651 457.716 678.178C463.885 623.277 520.128 563.32 574.565 555.802ZM1631.61 1675.42C1568.73 1683.9 1577.98 1739.85 1577.97 1787.02L1578.01 2470.83C1578.36 2576.12 1639.62 2555.26 1724.32 2555.38L2244.08 2555.47C2296.95 2555.47 2350.16 2556.85 2402.98 2555.45C2461.37 2551.77 2460.66 2499.87 2460.62 2454.55L2460.58 1785.4C2460.57 1662.05 2434.33 1675.2 2332.64 1675.41L1818.63 1675.42C1756.33 1675.43 1693.88 1676.47 1631.61 1675.42Z" fill="url(#paint0_linear_12_170)"/>
<path d="M1800.79 1871.12C1832.6 1870.43 1864.6 1871.09 1896.43 1871.09L2188.36 1871.11C2208.46 1871.11 2229.58 1869.93 2249.52 1872.59C2315 1881.34 2313.98 1991.27 2242.14 1992.91L1838.69 1992.88C1815.25 1992.9 1790.86 1997.36 1770.21 1983.38C1723.83 1951.98 1738.24 1880.87 1800.79 1871.12Z" fill="url(#paint1_linear_12_170)"/>
<defs>
<linearGradient id="paint0_linear_12_170" x1="1516.68" y1="555.393" x2="1516.68" y2="2675.91" gradientUnits="userSpaceOnUse">
<stop stop-color="#1CCA82"/>
<stop offset="1" stop-color="#21D7BC"/>
</linearGradient>
<linearGradient id="paint1_linear_12_170" x1="2020.15" y1="1870.81" x2="2020.15" y2="1993.57" gradientUnits="userSpaceOnUse">
<stop stop-color="#1CCA82"/>
<stop offset="1" stop-color="#21D7BC"/>
</linearGradient>
</defs>
</svg>
