<svg width="3033" height="3231" viewBox="0 0 3033 3231" fill="none" xmlns="http://www.w3.org/2000/svg">
<path d="M50 904.881L864.178 50H2983V2347.5L2217.87 3181H50V904.881Z" stroke="#1CCA82" stroke-width="100"/>
<path d="M1479 555.808C1507.68 554.165 1538.4 553.593 1566.86 557.72C1712.58 578.857 1832.48 711.842 1835.55 859.317C1836.7 914.412 1783.65 955.195 1732.63 923.11C1693.81 898.695 1705.49 857.515 1695.36 819.888C1674.12 740.938 1597.5 685.844 1516.43 686.094C1306.16 686.743 1265.6 985.243 1461.57 1040.83C1498.33 1051.26 1538.84 1047.79 1576.71 1047.79L1871.66 1047.74C1975.01 1047.71 2062.93 1086.87 2086.89 1199.93C2096.27 1244.19 2091.55 1339.11 2091.55 1386.53V1658.25C2091.55 1703.9 2090.79 1749.65 2091.54 1795.28L2268.57 1795.25C2299.36 1795.25 2330.46 1794.35 2361.23 1795.39C2425.19 1797.56 2421.84 1854.93 2421.71 1901.66L2421.64 2161.45C2421.65 2189.06 2422.86 2217.1 2421.65 2244.66C2625.54 2313.5 2632.89 2589.54 2432.8 2664.79C2314.42 2709.3 2188.45 2641.27 2144.72 2523.82C2118.5 2526.09 2091.56 2523.81 2065.21 2523.81L1912.6 2523.82C1887.92 2523.83 1862.96 2522.89 1838.32 2523.82V2392.36L2039.84 2392.37C2073.45 2392.36 2107.48 2391.13 2141.05 2392.36C2157.96 2335.2 2225.85 2248.55 2289.19 2244.66V1926.67C2270.82 1924.81 2250.83 1926.6 2232.25 1926.62L2107.05 1926.67C2081.34 1926.26 2086.56 1923.96 2076.34 1948.79C2036.03 2046.59 1951.38 2064.54 1858.6 2064.41L1166.4 2064.41C1059.88 2064.38 991.652 2033.72 948.251 1926.67C926.032 1925.68 903.333 1926.6 881.062 1926.63L742.752 1926.67C741.547 1965.8 742.728 2005.3 742.738 2044.48L742.752 2244.66C816.823 2274.82 861.286 2313.62 888.648 2392.36H1196.78C1196.77 2436.15 1197.51 2480.04 1196.78 2523.82L997.341 2523.83C964.02 2523.83 930.119 2522.49 896.857 2524L896.886 2524.31L890.856 2524.53C885.999 2530.2 875.201 2557.63 870.52 2566.24C778.669 2735.15 513.402 2706.13 461.641 2518.13C447.822 2467.94 456.622 2390.48 482.037 2345.66C508.32 2299.31 556.545 2258.89 608.267 2244.66L608.342 1892.58C608.491 1876.91 607.875 1860.36 610.277 1844.89C620.17 1781.16 703.731 1795.23 748.92 1795.24L942.574 1795.28L942.532 1305.61C942.507 1227.33 935.228 1162.49 996.349 1101.94C1051.94 1046.86 1092.9 1047.59 1161.73 1047.73L1255.37 1047.79C1230.35 998.653 1210.53 970.206 1203.15 912.391C1180.83 737.445 1304.13 578.341 1479 555.808ZM1132.51 1174.96C1067.34 1186.64 1074.76 1240.74 1074.87 1290.64L1074.93 1695.78C1074.94 1729.51 1075.54 1763.38 1074.82 1797.11C1073.84 1842.42 1060.23 1894.18 1105.64 1923.19C1131.18 1939.51 1194.85 1933.31 1227.54 1933.32L1739.06 1933.37C1791.19 1933.37 1843.66 1934.78 1895.75 1933.37C1953.51 1930.76 1957.1 1889.2 1957.05 1843.07L1957.14 1273.16C1957.26 1197.51 1949.39 1174.69 1860.9 1174.84L1186.15 1174.91C1168.34 1174.87 1150.31 1174.26 1132.51 1174.96ZM2344.25 2364.37C2224.14 2382.38 2245.22 2559.7 2367.61 2547.13C2492.25 2522.25 2457.04 2350.82 2344.25 2364.37ZM668.899 2364.37C544.465 2382.96 567.283 2558.46 689.419 2547.13C740.515 2538 777.054 2491.37 767.536 2439.08C759.952 2397.41 711.65 2354.26 668.899 2364.37Z" fill="url(#paint0_linear_11_144)"/>
<path d="M1506.97 1301.42C1553.92 1296.03 1610.35 1371.74 1642.48 1403.59C1673.47 1434.3 1731.2 1472.6 1701.2 1523.16C1685.82 1549.06 1608.37 1618.25 1582.73 1644.62C1582.63 1686.49 1597.97 1793.66 1530.15 1795.28C1440.57 1820.1 1449.27 1695.55 1452.37 1644.62C1414.96 1603.02 1298.45 1524.23 1333.4 1464.01C1345.84 1442.58 1470.99 1309.85 1506.97 1301.42ZM1516.39 1458.63C1510.69 1464.44 1490.63 1480.4 1490.05 1487.21C1489.5 1493.73 1510.81 1517.04 1516.39 1518.91C1526.04 1508.98 1537.66 1499.22 1545.96 1488.25C1536.73 1477.8 1526.63 1468.08 1516.39 1458.63Z" fill="url(#paint1_linear_11_144)"/>
<defs>
<linearGradient id="paint0_linear_11_144" x1="1516.96" y1="554.571" x2="1516.96" y2="2678.53" gradientUnits="userSpaceOnUse">
<stop stop-color="#1CCA82"/>
<stop offset="1" stop-color="#45D6D4"/>
</linearGradient>
<linearGradient id="paint1_linear_11_144" x1="1518.26" y1="1301.15" x2="1518.26" y2="1798.51" gradientUnits="userSpaceOnUse">
<stop stop-color="#1CCA82"/>
<stop offset="1" stop-color="#45D6D4"/>
</linearGradient>
</defs>
</svg>
